<?xml version="1.0" standalone="no"?>
<!DOCTYPE svg PUBLIC "-//W3C//DTD SVG 20010904//EN"
 "http://www.w3.org/TR/2001/REC-SVG-20010904/DTD/svg10.dtd">
<svg version="1.0" xmlns="http://www.w3.org/2000/svg"
 width="300.000000pt" height="300.000000pt" viewBox="0 0 300.000000 300.000000"
 preserveAspectRatio="xMidYMid meet">
<metadata>
Created by potrace 1.14, written by Peter Selinger 2001-2017
</metadata>
<g transform="translate(0.000000,300.000000) scale(0.100000,-0.100000)"
fill="#000000" stroke="none">
<path d="M575 2511 c-3 -5 -2 -12 3 -15 5 -3 9 1 9 9 0 17 -3 19 -12 6z"/>
<path d="M2475 2491 c-3 -5 -2 -12 3 -15 5 -3 9 1 9 9 0 17 -3 19 -12 6z"/>
<path d="M530 2480 c0 -5 5 -10 11 -10 5 0 7 5 4 10 -3 6 -8 10 -11 10 -2 0
-4 -4 -4 -10z"/>
<path d="M2340 2486 c0 -2 8 -10 18 -17 15 -13 16 -12 3 4 -13 16 -21 21 -21
13z"/>
<path d="M2315 2471 c-3 -5 -2 -12 3 -15 5 -3 9 1 9 9 0 17 -3 19 -12 6z"/>
<path d="M2394 2469 c-3 -6 -2 -15 3 -20 5 -5 9 -1 9 11 0 23 -2 24 -12 9z"/>
<path d="M455 2460 c-3 -5 -1 -10 4 -10 6 0 11 5 11 10 0 6 -2 10 -4 10 -3 0
-8 -4 -11 -10z"/>
<path d="M2580 2460 c-12 -7 -10 -9 7 -7 12 0 19 5 17 9 -6 10 -6 10 -24 -2z"/>
<path d="M393 2432 c2 -12 6 -24 10 -28 3 -4 4 4 2 16 -6 30 -16 40 -12 12z"/>
<path d="M515 2440 c-3 -5 -1 -10 4 -10 6 0 11 5 11 10 0 6 -2 10 -4 10 -3 0
-8 -4 -11 -10z"/>
<path d="M653 2436 c-3 -6 -3 -8 2 -4 4 4 13 3 20 -2 8 -7 12 -5 12 3 0 16
-25 18 -34 3z"/>
<path d="M2350 2439 c0 -5 5 -7 10 -4 6 3 10 8 10 11 0 2 -4 4 -10 4 -5 0 -10
-5 -10 -11z"/>
<path d="M2439 2433 c-13 -16 -12 -17 4 -4 9 7 17 15 17 17 0 8 -8 3 -21 -13z"/>
<path d="M2513 2435 c0 -8 4 -12 9 -9 5 3 6 10 3 15 -9 13 -12 11 -12 -6z"/>
<path d="M561 2432 c-1 -7 -5 -10 -11 -7 -6 4 -7 -1 -3 -11 4 -11 8 -13 11 -6
2 7 8 10 12 7 5 -3 12 0 16 6 4 7 3 9 -4 5 -5 -3 -13 0 -15 6 -4 10 -6 10 -6
0z"/>
<path d="M482 2418 c-15 -15 -15 -28 0 -28 6 0 8 3 5 7 -4 3 -2 12 4 20 14 16
7 17 -9 1z"/>
<path d="M2404 2416 c-3 -8 -12 -12 -20 -9 -8 3 -14 3 -14 0 0 -16 31 -13 40
3 6 11 8 20 5 20 -3 0 -8 -6 -11 -14z"/>
<path d="M2466 2415 c4 -8 11 -15 16 -15 6 0 5 6 -2 15 -7 8 -14 15 -16 15 -2
0 -1 -7 2 -15z"/>
<path d="M2590 2419 c0 -5 5 -7 10 -4 6 3 10 8 10 11 0 2 -4 4 -10 4 -5 0 -10
-5 -10 -11z"/>
<path d="M608 2413 c-10 -2 -18 -9 -18 -14 0 -6 8 -5 20 1 11 6 20 13 20 15 0
3 -1 4 -2 4 -2 -1 -11 -3 -20 -6z"/>
<path d="M657 2409 c7 -7 15 -10 18 -7 3 3 -2 9 -12 12 -14 6 -15 5 -6 -5z"/>
<path d="M2337 2409 c7 -7 15 -10 18 -7 3 3 -2 9 -12 12 -14 6 -15 5 -6 -5z"/>
<path d="M2535 2409 c-4 -6 -14 -8 -24 -4 -13 5 -14 4 -3 -6 10 -11 15 -10 29
4 10 9 14 17 11 17 -4 0 -10 -5 -13 -11z"/>
<path d="M690 2398 c0 -4 4 -8 9 -8 6 0 12 4 15 8 3 5 -1 9 -9 9 -8 0 -15 -4
-15 -9z"/>
<path d="M750 2400 c0 -5 5 -10 11 -10 5 0 7 5 4 10 -3 6 -8 10 -11 10 -2 0
-4 -4 -4 -10z"/>
<path d="M2238 2393 c-6 -7 -21 -13 -34 -13 -23 0 -24 -3 -24 -71 0 -53 -3
-68 -12 -63 -9 5 -9 3 1 -9 7 -9 11 -25 9 -35 -4 -12 1 -18 13 -18 10 0 16 3
13 7 -2 4 48 6 111 6 l115 -2 0 -578 c0 -381 -4 -576 -10 -572 -6 4 -13 -1
-16 -9 -3 -9 -10 -14 -14 -11 -5 3 -12 0 -16 -6 -4 -8 -3 -9 4 -5 7 4 12 1 12
-6 1 -7 6 -3 13 9 8 15 17 19 26 14 11 -7 10 -11 -5 -20 -11 -6 -13 -11 -6
-11 14 0 18 -195 3 -204 -5 -4 -11 -1 -13 6 -3 7 -9 8 -19 3 -17 -12 -78 -13
-101 -3 -9 5 -19 4 -22 -1 -8 -12 -46 -2 -46 13 0 6 -5 3 -11 -7 -6 -9 -15
-15 -20 -12 -5 4 -7 10 -4 15 3 5 0 12 -6 16 -7 4 -9 3 -5 -4 3 -5 1 -12 -6
-14 -6 -2 -12 -12 -14 -21 -1 -9 2 -15 7 -11 5 3 7 10 4 15 -4 5 -1 9 4 9 15
0 14 -23 -1 -39 -11 -11 -10 -12 0 -7 15 9 13 -29 -2 -53 -6 -10 -5 -12 3 -7
8 6 11 -4 8 -36 l-3 -43 237 0 c131 0 235 3 233 7 -3 5 0 8 5 8 6 0 11 5 11
11 0 5 -4 7 -10 4 -5 -3 -10 -2 -10 4 0 5 5 13 10 16 6 3 10 12 10 18 0 8 -3
8 -9 -1 -5 -8 -8 2 -8 27 0 23 4 41 9 41 5 0 6 -5 2 -12 -5 -7 -3 -8 5 -4 9 6
8 13 -5 27 -17 18 -16 20 2 35 10 8 13 13 7 9 -7 -3 -14 0 -14 7 -1 7 -2 20
-3 28 0 8 4 18 9 22 6 5 5 8 -4 8 -11 0 -11 3 0 16 15 19 21 47 8 38 -5 -3 -9
1 -10 8 -5 66 -3 88 6 88 5 0 4 4 -3 9 -10 6 -10 10 2 20 15 13 11 45 -5 35
-5 -3 -4 7 1 21 5 14 6 24 1 21 -5 -3 -8 8 -7 24 0 17 5 30 11 30 5 0 4 4 -3
9 -10 6 -10 10 3 21 11 9 12 16 4 26 -14 17 -18 104 -5 104 6 0 5 4 -2 9 -10
6 -10 10 2 20 14 12 11 45 -3 36 -4 -2 -8 2 -8 10 0 8 4 15 9 15 4 0 8 5 8 11
0 5 -4 8 -9 5 -4 -3 -8 8 -7 24 1 17 6 30 11 30 6 0 4 4 -3 9 -10 6 -10 10 3
21 11 9 12 16 4 26 -14 17 -18 104 -5 104 6 0 5 4 -2 9 -10 6 -10 10 2 20 15
12 11 45 -4 36 -10 -6 -7 15 4 34 6 9 5 12 -1 8 -6 -4 -10 6 -9 23 1 17 6 30
11 30 6 0 4 4 -3 9 -10 6 -10 10 3 21 11 9 12 16 4 26 -14 17 -18 102 -5 108
6 2 5 5 -3 5 -11 1 -11 4 0 17 7 9 14 26 15 37 2 12 0 16 -2 10 -11 -27 -19
-11 -19 37 -1 28 4 50 10 50 5 0 4 4 -3 9 -10 6 -10 10 3 21 14 12 14 15 -2
33 -13 15 -15 21 -5 24 6 3 12 9 12 14 0 6 -4 8 -9 4 -6 -3 -9 7 -8 22 1 16 9
31 17 35 12 5 11 7 -4 7 -16 1 -17 3 -5 18 10 11 10 14 2 9 -18 -10 -16 9 2
28 9 9 11 17 5 21 -5 3 -10 1 -10 -5 0 -6 -5 -8 -12 -3 -7 4 -52 7 -99 8 -61
0 -92 5 -105 15 -17 13 -18 13 -7 0 10 -14 0 -16 -87 -16 -55 -1 -97 3 -94 8
3 4 9 6 13 4 4 -3 13 -1 21 4 11 7 9 9 -8 7 -13 -1 -28 -7 -34 -14z m422 -207
c0 -3 -4 -8 -10 -11 -5 -3 -10 -1 -10 4 0 6 5 11 10 11 6 0 10 -2 10 -4z m0
-160 c0 -3 -4 -8 -10 -11 -5 -3 -10 -1 -10 4 0 6 5 11 10 11 6 0 10 -2 10 -4z
m0 -160 c0 -3 -4 -8 -10 -11 -5 -3 -10 -1 -10 4 0 6 5 11 10 11 6 0 10 -2 10
-4z m0 -160 c0 -3 -4 -8 -10 -11 -5 -3 -10 -1 -10 4 0 6 5 11 10 11 6 0 10 -2
10 -4z m0 -160 c0 -3 -4 -8 -10 -11 -5 -3 -10 -1 -10 4 0 6 5 11 10 11 6 0 10
-2 10 -4z m0 -160 c0 -3 -4 -8 -10 -11 -5 -3 -10 -1 -10 4 0 6 5 11 10 11 6 0
10 -2 10 -4z m0 -160 c0 -3 -4 -8 -10 -11 -5 -3 -10 -1 -10 4 0 6 5 11 10 11
6 0 10 -2 10 -4z m0 -160 c0 -3 -4 -8 -10 -11 -5 -3 -10 -1 -10 4 0 6 5 11 10
11 6 0 10 -2 10 -4z m0 -160 c0 -3 -4 -8 -10 -11 -5 -3 -10 -1 -10 4 0 6 5 11
10 11 6 0 10 -2 10 -4z"/>
<path d="M633 2394 c4 -7 -35 -10 -129 -9 -138 1 -154 -3 -148 -38 1 -12 -2
-17 -10 -14 -7 3 -13 -1 -13 -8 0 -7 6 -11 12 -9 6 3 12 -2 12 -11 0 -9 -6
-14 -12 -11 -6 2 -12 -2 -12 -10 0 -7 4 -11 9 -8 4 3 8 -1 9 -8 0 -7 2 -23 5
-35 2 -13 -1 -23 -7 -23 -5 0 -7 6 -3 13 4 6 3 8 -1 4 -12 -10 -15 -38 -4 -31
5 3 9 -1 10 -8 0 -7 2 -23 5 -35 2 -13 -1 -23 -7 -23 -5 0 -7 6 -3 13 4 6 3 8
-1 4 -12 -10 -15 -38 -4 -31 5 3 9 -1 10 -8 0 -7 2 -23 5 -35 2 -13 -1 -23 -7
-23 -5 0 -7 5 -3 12 4 7 3 8 -5 4 -6 -4 -8 -12 -5 -18 5 -7 1 -9 -9 -5 -9 3
-19 2 -21 -2 -3 -5 7 -8 21 -7 l27 1 1 -353 c0 -193 -4 -352 -8 -352 -5 0 -5
6 -1 13 4 6 3 8 -1 4 -12 -10 -15 -38 -4 -31 5 3 9 -1 10 -8 0 -7 2 -23 5 -35
2 -13 -1 -23 -7 -23 -5 0 -7 6 -3 12 4 7 3 9 -1 5 -12 -10 -15 -38 -4 -31 5 3
9 -1 10 -8 0 -7 2 -23 5 -35 2 -13 -1 -23 -7 -23 -5 0 -7 6 -3 13 4 6 3 8 -1
4 -12 -10 -15 -38 -4 -31 5 3 9 -1 10 -8 0 -7 2 -23 5 -35 2 -13 -1 -23 -7
-23 -5 0 -7 6 -3 13 4 6 3 8 -1 4 -11 -10 -16 -39 -5 -32 14 9 16 -17 15 -237
-1 -180 1 -218 12 -218 8 0 11 -5 7 -12 -5 -7 -3 -8 7 -2 8 4 98 9 201 9 180
1 194 -1 189 -28 -1 -5 3 -6 8 -2 6 3 7 13 4 22 -4 9 -2 14 3 10 19 -11 36 11
36 47 0 33 2 35 17 24 13 -10 13 -9 -1 8 -21 24 -23 45 -5 63 10 11 10 13 0 7
-7 -4 -13 -2 -13 5 0 7 8 9 21 6 15 -4 19 -3 12 4 -6 6 -36 12 -67 14 -31 2
-60 6 -65 9 -5 4 -12 3 -15 -2 -5 -9 -94 -7 -104 2 -3 3 -12 0 -20 -7 -13 -10
-14 -7 -10 21 3 19 0 32 -6 32 -6 0 -2 7 8 15 11 8 14 15 8 15 -9 0 -12 19
-10 65 2 38 -1 65 -7 65 -5 0 -1 7 9 15 11 8 15 15 9 15 -15 0 -14 183 1 192
8 6 8 8 -1 8 -16 0 -15 230 1 230 8 0 8 3 -1 8 -16 10 -15 232 1 232 8 0 7 3
-1 8 -16 10 -15 224 1 234 8 6 8 8 -1 8 -8 0 -11 33 -11 115 0 97 3 115 17
119 9 2 66 4 126 3 l111 -2 -2 94 -2 93 -83 0 c-47 0 -90 5 -98 12 -10 7 -13
7 -8 0z"/>
<path d="M2710 2279 c0 -5 5 -7 10 -4 6 3 10 8 10 11 0 2 -4 4 -10 4 -5 0 -10
-5 -10 -11z"/>
<path d="M859 2268 c-5 -18 -6 -38 -1 -34 7 8 12 36 6 36 -2 0 -4 -1 -5 -2z"/>
<path d="M2666 2257 c3 -10 9 -15 12 -12 3 3 0 11 -7 18 -10 9 -11 8 -5 -6z"/>
<path d="M300 2250 c0 -5 -8 -7 -17 -3 -19 6 -18 5 7 -14 13 -10 16 -8 17 8 1
10 0 19 -3 19 -2 0 -4 -4 -4 -10z"/>
<path d="M326 2243 c-6 -14 -5 -15 5 -6 7 7 10 15 7 18 -3 3 -9 -2 -12 -12z"/>
<path d="M2696 2247 c3 -10 9 -15 12 -12 3 3 0 11 -7 18 -10 9 -11 8 -5 -6z"/>
<path d="M2113 2225 c0 -8 4 -12 9 -9 5 3 6 10 3 15 -9 13 -12 11 -12 -6z"/>
<path d="M2670 2223 c0 -5 5 -15 10 -23 7 -12 9 -10 7 8 -1 19 -17 33 -17 15z"/>
<path d="M294 2182 c3 -6 -2 -12 -11 -14 -16 -3 -17 -4 -1 -10 19 -8 33 17 16
28 -6 4 -8 3 -4 -4z"/>
<path d="M605 2180 c-3 -5 -1 -18 5 -27 9 -15 10 -14 4 6 -4 17 -3 21 6 16 9
-5 11 -4 6 3 -9 15 -13 15 -21 2z"/>
<path d="M694 2178 c-4 -7 -3 -8 4 -4 7 4 12 3 12 -2 0 -6 7 -12 14 -15 10 -4
13 -1 10 8 -7 18 -32 27 -40 13z"/>
<path d="M759 2164 c-5 -15 -7 -29 -5 -32 3 -2 8 7 12 22 3 14 11 23 17 19 6
-3 7 -1 3 5 -11 18 -15 15 -27 -14z"/>
<path d="M2294 2178 c-4 -7 -3 -8 4 -4 7 4 12 2 12 -3 0 -6 5 -11 10 -11 15 0
12 17 -5 23 -8 4 -17 1 -21 -5z"/>
<path d="M2360 2186 c0 -2 7 -7 16 -10 8 -3 12 -2 9 4 -6 10 -25 14 -25 6z"/>
<path d="M322 2160 c-18 -29 -15 -38 4 -12 9 13 14 25 12 27 -2 2 -9 -5 -16
-15z"/>
<path d="M2690 2171 c0 -7 -4 -10 -8 -7 -5 3 -9 -1 -9 -9 0 -8 4 -15 8 -15 9
0 21 31 14 38 -3 3 -5 0 -5 -7z"/>
<path d="M213 2155 c0 -8 4 -12 9 -9 5 3 6 10 3 15 -9 13 -12 11 -12 -6z"/>
<path d="M655 2160 c3 -5 8 -10 11 -10 2 0 4 5 4 10 0 6 -5 10 -11 10 -5 0 -7
-4 -4 -10z"/>
<path d="M2176 2154 c-5 -14 -4 -15 9 -4 17 14 19 20 6 20 -5 0 -12 -7 -15
-16z"/>
<path d="M2210 2159 c0 -5 4 -8 9 -4 6 3 14 -3 20 -12 6 -10 11 -13 11 -7 0
12 -20 34 -32 34 -4 0 -8 -5 -8 -11z"/>
<path d="M2257 2153 c3 -7 6 -13 8 -13 2 0 5 6 8 13 3 8 -1 14 -8 14 -7 0 -11
-6 -8 -14z"/>
<path d="M2366 2157 c3 -10 9 -15 12 -12 3 3 0 11 -7 18 -10 9 -11 8 -5 -6z"/>
<path d="M633 2145 c0 -8 4 -15 9 -15 4 0 8 4 8 9 0 6 -4 12 -8 15 -5 3 -9 -1
-9 -9z"/>
<path d="M2397 2153 c-11 -11 -8 -20 7 -20 8 0 12 6 9 14 -6 15 -7 15 -16 6z"/>
<path d="M590 2141 c0 -10 29 -36 34 -30 1 2 -6 12 -16 22 -10 9 -18 13 -18 8z"/>
<path d="M2720 2135 c-7 -9 -11 -17 -9 -20 3 -2 10 5 17 15 14 24 10 26 -8 5z"/>
<path d="M2775 2140 c3 -5 8 -10 11 -10 2 0 4 5 4 10 0 6 -5 10 -11 10 -5 0
-7 -4 -4 -10z"/>
<path d="M657 2127 c-3 -8 1 -14 8 -14 7 0 11 6 8 14 -3 7 -6 13 -8 13 -2 0
-5 -6 -8 -13z"/>
<path d="M2195 2129 c-4 -6 -5 -12 -2 -15 2 -3 7 2 10 11 7 17 1 20 -8 4z"/>
<path d="M282 2117 c10 -8 14 -18 10 -22 -4 -5 -1 -5 6 -1 17 10 15 14 -10 26
-21 10 -21 10 -6 -3z"/>
<path d="M705 2120 c3 -5 8 -10 11 -10 2 0 4 5 4 10 0 6 -5 10 -11 10 -5 0 -7
-4 -4 -10z"/>
<path d="M731 2114 c0 -11 3 -14 6 -6 3 7 2 16 -1 19 -3 4 -6 -2 -5 -13z"/>
<path d="M2255 2120 c-3 -5 -1 -10 4 -10 6 0 11 5 11 10 0 6 -2 10 -4 10 -3 0
-8 -4 -11 -10z"/>
<path d="M2309 2117 c7 -7 14 -8 21 -1 6 6 2 10 -12 11 -16 2 -18 -1 -9 -10z"/>
<path d="M2370 2120 c0 -5 5 -10 11 -10 5 0 7 5 4 10 -3 6 -8 10 -11 10 -2 0
-4 -4 -4 -10z"/>
<path d="M2655 2120 c-3 -5 -1 -10 4 -10 6 0 11 5 11 10 0 6 -2 10 -4 10 -3 0
-8 -4 -11 -10z"/>
<path d="M2736 2113 c-6 -14 -5 -15 5 -6 7 7 10 15 7 18 -3 3 -9 -2 -12 -12z"/>
<path d="M2075 2111 c-3 -5 -2 -12 3 -15 5 -3 9 1 9 9 0 17 -3 19 -12 6z"/>
<path d="M2215 2110 c-3 -6 1 -7 9 -4 18 7 21 14 7 14 -6 0 -13 -4 -16 -10z"/>
<path d="M215 2100 c-3 -5 -1 -10 4 -10 6 0 11 5 11 10 0 6 -2 10 -4 10 -3 0
-8 -4 -11 -10z"/>
<path d="M590 2100 c0 -5 5 -10 11 -10 5 0 7 5 4 10 -3 6 -8 10 -11 10 -2 0
-4 -4 -4 -10z"/>
<path d="M695 2100 c5 -9 1 -10 -16 -6 -21 6 -22 6 -6 -5 13 -7 22 -8 29 -1 6
6 6 12 -3 17 -8 6 -10 4 -4 -5z"/>
<path d="M2135 2100 c3 -5 8 -10 11 -10 2 0 4 5 4 10 0 6 -5 10 -11 10 -5 0
-7 -4 -4 -10z"/>
<path d="M2295 2100 c5 -9 1 -10 -16 -6 -21 6 -22 6 -6 -5 13 -7 22 -8 29 -1
6 6 6 12 -3 17 -8 6 -10 4 -4 -5z"/>
<path d="M2353 2095 c0 -7 6 -11 14 -8 7 3 13 6 13 8 0 2 -6 5 -13 8 -8 3 -14
-1 -14 -8z"/>
<path d="M2395 2101 c-3 -5 0 -13 6 -17 7 -4 9 -3 5 4 -3 5 0 13 6 15 9 4 10
6 1 6 -6 1 -14 -3 -18 -8z"/>
<path d="M2679 2089 c-6 -13 -7 -19 -1 -15 6 3 13 0 16 -6 3 -7 3 -2 0 11 -5
17 -3 21 6 16 9 -5 11 -4 6 3 -10 16 -14 15 -27 -9z"/>
<path d="M330 2090 c0 -5 -5 -9 -11 -7 -6 1 -14 -5 -16 -13 -4 -12 -3 -12 5
-2 5 8 13 13 18 12 5 -1 10 3 12 9 2 6 1 11 -2 11 -3 0 -6 -4 -6 -10z"/>
<path d="M636 2085 c10 -8 23 -15 28 -15 6 0 1 7 -10 15 -10 8 -23 15 -28 15
-6 0 -1 -7 10 -15z"/>
<path d="M753 2072 c-1 -22 0 -24 9 -8 6 10 6 22 2 26 -5 5 -10 -3 -11 -18z"/>
<path d="M833 2085 c0 -8 4 -12 9 -9 5 3 6 10 3 15 -9 13 -12 11 -12 -6z"/>
<path d="M2242 2084 c10 -10 20 -16 22 -13 3 3 -5 11 -17 18 -21 13 -21 12 -5
-5z"/>
<path d="M2322 2084 c-7 -8 -8 -14 -3 -14 10 0 25 19 20 25 -2 1 -10 -3 -17
-11z"/>
<path d="M246 2079 c3 -5 9 -7 14 -4 5 3 13 -3 19 -12 6 -10 11 -13 11 -6 0
13 -17 26 -38 29 -6 1 -10 -2 -6 -7z"/>
<path d="M726 2077 c3 -10 9 -15 12 -12 3 3 0 11 -7 18 -10 9 -11 8 -5 -6z"/>
<path d="M1479 2073 c-13 -16 -12 -17 4 -4 9 7 17 15 17 17 0 8 -8 3 -21 -13z"/>
<path d="M2785 2079 c-3 -4 2 -6 10 -5 21 3 28 13 10 13 -9 0 -18 -4 -20 -8z"/>
<path d="M2193 2067 c0 -8 6 -14 14 -14 9 0 10 4 2 14 -6 7 -12 13 -14 13 -1
0 -2 -6 -2 -13z"/>
<path d="M2713 2065 c0 -8 4 -12 9 -9 5 3 6 10 3 15 -9 13 -12 11 -12 -6z"/>
<path d="M216 2062 c-3 -5 1 -9 9 -9 8 0 12 4 9 9 -3 4 -7 8 -9 8 -2 0 -6 -4
-9 -8z"/>
<path d="M856 2062 c-3 -5 1 -9 9 -9 8 0 12 4 9 9 -3 4 -7 8 -9 8 -2 0 -6 -4
-9 -8z"/>
<path d="M1575 2060 c-3 -5 -1 -10 4 -10 6 0 11 5 11 10 0 6 -2 10 -4 10 -3 0
-8 -4 -11 -10z"/>
<path d="M2135 2060 c3 -5 8 -10 11 -10 2 0 4 5 4 10 0 6 -5 10 -11 10 -5 0
-7 -4 -4 -10z"/>
<path d="M2339 2068 c-6 -19 -4 -50 4 -55 6 -3 7 -1 3 5 -3 5 0 13 6 16 11 5
11 7 0 12 -6 3 -10 10 -6 15 3 5 3 9 0 9 -3 0 -6 -1 -7 -2z"/>
<path d="M2749 2058 c11 -15 11 -21 0 -35 -12 -17 -12 -17 6 0 19 17 19 17 0
35 -18 16 -18 16 -6 0z"/>
<path d="M266 2038 c10 -14 21 -24 23 -22 3 3 -6 15 -18 27 l-24 22 19 -27z"/>
<path d="M630 2051 c0 -10 19 -25 25 -20 1 2 -3 10 -11 17 -8 7 -14 8 -14 3z"/>
<path d="M681 2043 c7 -10 15 -20 16 -22 2 -2 3 3 3 11 0 9 -7 19 -16 22 -15
6 -15 4 -3 -11z"/>
<path d="M774 2049 c-3 -6 -2 -15 3 -20 5 -5 9 -1 9 11 0 23 -2 24 -12 9z"/>
<path d="M1310 2056 c0 -2 8 -10 18 -17 15 -13 16 -12 3 4 -13 16 -21 21 -21
13z"/>
<path d="M2235 2050 c-3 -5 -3 -10 2 -10 4 0 1 -5 -7 -10 -13 -8 -13 -10 2
-10 11 0 16 7 15 20 -1 23 -3 24 -12 10z"/>
<path d="M2276 2045 c3 -8 11 -12 17 -8 6 4 8 0 4 -11 -4 -10 -3 -15 3 -11 16
10 12 23 -10 35 -16 9 -18 8 -14 -5z"/>
<path d="M2392 2040 c0 -14 2 -19 5 -12 2 6 2 18 0 25 -3 6 -5 1 -5 -13z"/>
<path d="M590 2045 c0 -5 5 -17 10 -25 5 -8 10 -10 10 -5 0 6 -5 17 -10 25 -5
8 -10 11 -10 5z"/>
<path d="M1476 2035 c-9 -26 -7 -32 5 -12 6 10 9 21 6 23 -2 3 -7 -2 -11 -11z"/>
<path d="M750 2031 c0 -7 -5 -9 -12 -5 -7 5 -8 3 -3 -5 5 -9 10 -10 18 -2 6 6
8 14 4 18 -4 3 -7 1 -7 -6z"/>
<path d="M710 2021 c0 -6 4 -13 10 -16 6 -3 7 1 4 9 -7 18 -14 21 -14 7z"/>
<path d="M1665 2020 c-3 -6 1 -7 9 -4 18 7 21 14 7 14 -6 0 -13 -4 -16 -10z"/>
<path d="M2695 2021 c-9 -15 15 -25 28 -12 9 9 7 10 -7 5 -13 -5 -17 -4 -12 4
4 7 5 12 2 12 -3 0 -7 -4 -11 -9z"/>
<path d="M249 2003 c-13 -16 -12 -17 4 -4 9 7 17 15 17 17 0 8 -8 3 -21 -13z"/>
<path d="M583 1998 c1 -15 6 -23 11 -18 4 4 4 16 -2 26 -9 16 -10 14 -9 -8z"/>
<path d="M1335 2010 c-3 -6 -17 -8 -30 -6 -14 3 -27 1 -29 -3 -3 -4 9 -7 27
-6 18 0 35 -4 39 -10 4 -5 6 0 5 13 -1 25 -3 26 -12 12z"/>
<path d="M1497 2009 c7 -7 15 -10 18 -7 3 3 -2 9 -12 12 -14 6 -15 5 -6 -5z"/>
<path d="M1571 2011 c-8 -5 -9 -11 -3 -15 5 -3 12 1 16 9 6 17 6 18 -13 6z"/>
<path d="M310 1990 c6 -11 16 -20 23 -19 9 0 9 2 -1 6 -6 2 -10 8 -7 13 3 4
-2 11 -10 14 -13 4 -14 2 -5 -14z"/>
<path d="M630 1990 c12 -22 25 -26 35 -10 4 6 -1 7 -11 3 -11 -4 -15 -2 -11 4
4 6 0 14 -8 17 -13 4 -14 2 -5 -14z"/>
<path d="M690 2000 c0 -5 5 -10 11 -10 5 0 7 5 4 10 -3 6 -8 10 -11 10 -2 0
-4 -4 -4 -10z"/>
<path d="M766 1998 c3 -5 10 -6 15 -3 13 9 11 12 -6 12 -8 0 -12 -4 -9 -9z"/>
<path d="M1190 1999 c0 -5 5 -7 10 -4 6 3 10 8 10 11 0 2 -4 4 -10 4 -5 0 -10
-5 -10 -11z"/>
<path d="M1400 1995 c-7 -9 -11 -17 -9 -20 3 -2 10 5 17 15 14 24 10 26 -8 5z"/>
<path d="M1435 2002 c3 -3 -3 -11 -13 -18 -15 -12 -15 -13 5 -8 25 7 38 31 17
31 -8 0 -12 -3 -9 -5z"/>
<path d="M1530 2000 c0 -5 5 -10 10 -10 6 0 10 5 10 10 0 6 -4 10 -10 10 -5 0
-10 -4 -10 -10z"/>
<path d="M2219 1993 c-13 -16 -12 -17 4 -4 9 7 17 15 17 17 0 8 -8 3 -21 -13z"/>
<path d="M2307 2004 c-4 -4 -7 -12 -7 -18 0 -6 5 -4 10 4 9 13 11 13 21 0 9
-12 10 -12 7 -1 -5 17 -21 25 -31 15z"/>
<path d="M2673 1995 c0 -8 4 -15 9 -15 4 0 8 4 8 9 0 6 -4 12 -8 15 -5 3 -9
-1 -9 -9z"/>
<path d="M2786 1998 c3 -5 10 -6 15 -3 13 9 11 12 -6 12 -8 0 -12 -4 -9 -9z"/>
<path d="M1153 1985 c0 -8 4 -12 9 -9 5 3 6 10 3 15 -9 13 -12 11 -12 -6z"/>
<path d="M2173 1985 c0 -8 4 -12 9 -9 5 3 6 10 3 15 -9 13 -12 11 -12 -6z"/>
<path d="M2353 1985 c0 -7 6 -11 14 -8 7 3 13 6 13 8 0 2 -6 5 -13 8 -8 3 -14
-1 -14 -8z"/>
<path d="M2395 1990 c-3 -5 -1 -10 4 -10 6 0 11 5 11 10 0 6 -2 10 -4 10 -3 0
-8 -4 -11 -10z"/>
<path d="M1590 1980 c0 -5 5 -10 10 -10 6 0 10 5 10 10 0 6 -4 10 -10 10 -5 0
-10 -4 -10 -10z"/>
<path d="M2275 1980 c3 -5 8 -10 11 -10 2 0 4 5 4 10 0 6 -5 10 -11 10 -5 0
-7 -4 -4 -10z"/>
<path d="M2747 1979 c7 -9 10 -19 6 -22 -3 -4 -1 -7 5 -7 17 0 15 16 -5 31
-16 12 -17 12 -6 -2z"/>
<path d="M276 1965 c23 -17 34 -19 34 -4 0 5 -4 8 -9 4 -5 -3 -12 -1 -16 5 -3
5 -11 10 -18 10 -6 0 -2 -7 9 -15z"/>
<path d="M675 1971 c-3 -5 0 -13 6 -17 7 -4 9 -3 5 4 -3 5 0 13 6 15 9 4 10 6
1 6 -6 1 -14 -3 -18 -8z"/>
<path d="M1294 1972 c6 -9 1 -11 -18 -8 -15 3 -30 -2 -38 -12 -11 -13 -11 -14
2 -7 19 12 31 13 52 3 11 -5 16 -4 14 7 -1 8 -6 18 -11 22 -4 4 -5 2 -1 -5z"/>
<path d="M1476 1973 c-4 -4 -12 -8 -19 -9 -84 -13 -100 -17 -144 -34 -18 -6
-35 -10 -37 -8 -3 1 -12 -6 -21 -17 -9 -11 -14 -14 -10 -7 3 6 1 12 -4 12 -6
0 -11 -6 -11 -13 0 -15 -40 -55 -40 -41 -1 5 -10 -8 -21 -28 -11 -21 -24 -38
-30 -38 -6 0 -9 -6 -6 -14 3 -7 -1 -23 -9 -35 -8 -11 -12 -21 -7 -21 4 0 1 -5
-7 -10 -8 -5 -10 -10 -4 -10 6 0 9 -21 8 -52 -1 -29 2 -60 7 -69 4 -9 5 -19 2
-23 -11 -10 -12 -37 -2 -30 5 3 6 10 3 16 -4 7 -2 8 4 4 7 -4 12 -12 12 -18 0
-6 11 -26 25 -44 14 -18 25 -38 25 -44 0 -6 5 -8 12 -4 7 5 9 2 5 -9 -4 -10
-2 -14 7 -11 20 8 106 -45 99 -62 -3 -8 0 -14 6 -14 6 0 10 3 9 8 -5 13 12 14
45 2 18 -7 41 -14 52 -15 26 -4 75 -23 75 -29 0 -3 -7 -3 -15 0 -8 4 -15 2
-15 -4 0 -11 25 -11 35 0 8 8 45 -2 45 -13 0 -5 7 -6 15 -3 8 4 15 1 15 -5 0
-6 8 -11 19 -11 22 0 45 -25 36 -39 -3 -6 0 -8 8 -5 20 7 30 -12 34 -60 4 -50
-17 -83 -70 -106 -41 -18 -66 -18 -37 0 11 7 11 10 2 10 -7 0 -15 -7 -18 -15
-7 -18 -114 -19 -114 -1 0 6 -5 4 -10 -4 -7 -11 -10 -11 -10 -2 0 7 -5 10 -10
7 -28 -17 -229 77 -246 115 -8 19 -10 18 -29 -17 -11 -21 -27 -43 -35 -50 -8
-7 -11 -13 -6 -13 6 0 1 -7 -10 -16 -10 -8 -13 -12 -6 -9 12 6 12 3 2 -16 -7
-13 -18 -27 -24 -31 -7 -5 -6 -8 3 -8 9 0 11 -7 8 -21 -4 -16 -3 -18 8 -9 10
9 19 6 34 -9 12 -12 21 -19 21 -16 0 8 53 -27 68 -45 8 -8 11 -9 7 -3 -7 14
21 7 44 -11 8 -6 16 -10 18 -8 8 6 44 1 40 -5 -3 -5 9 -9 25 -10 17 -1 37 -8
46 -15 13 -11 14 -11 8 0 -6 10 -1 11 21 7 34 -7 142 -7 153 0 5 3 12 1 15 -5
4 -7 11 -8 18 -1 16 13 76 21 82 11 3 -5 -1 -11 -7 -13 -10 -4 -10 -6 0 -6 7
-1 10 -6 6 -13 -4 -7 -3 -8 5 -4 6 4 8 12 5 18 -5 8 -1 9 12 5 18 -7 18 -6 2
7 -22 16 -23 26 -4 26 8 0 31 9 51 21 33 20 35 20 29 3 -3 -11 2 -7 11 9 8 15
20 27 26 27 6 0 7 -5 3 -12 -4 -7 -3 -8 5 -4 6 4 9 12 6 17 -4 5 1 12 9 15 9
3 16 12 16 19 0 6 9 20 20 30 11 10 20 24 20 32 0 7 5 13 10 13 6 0 10 -4 10
-10 0 -5 7 -10 16 -10 13 0 11 4 -6 18 -16 13 -20 23 -14 33 5 8 7 22 6 32 -2
10 2 25 8 33 7 8 8 14 3 14 -5 0 -9 17 -8 38 0 45 -19 105 -45 142 -11 15 -16
30 -12 34 4 4 3 6 -3 4 -5 -1 -30 11 -55 28 -43 30 -133 73 -161 77 -8 2 -20
6 -26 10 -7 5 -21 10 -30 12 -110 25 -199 63 -196 82 2 7 -4 10 -12 7 -11 -5
-13 -2 -8 12 4 11 3 15 -4 11 -6 -4 -13 3 -17 16 -7 29 8 83 22 80 6 -2 9 4 6
12 -4 10 0 15 14 15 11 0 22 4 24 10 2 5 22 12 45 16 40 6 42 5 37 -17 l-5
-24 10 23 c6 12 18 22 26 22 10 0 13 -5 9 -11 -5 -8 -2 -9 12 -1 15 9 22 6 32
-11 8 -13 11 -15 8 -5 -6 20 0 20 74 -1 25 -7 59 -21 76 -32 17 -10 34 -16 37
-13 3 3 10 -3 16 -14 7 -14 7 -22 1 -25 -6 -3 -5 -4 2 -2 7 1 12 8 10 14 -1 6
2 11 8 11 5 0 10 7 10 15 0 9 7 18 15 21 8 4 15 13 15 20 0 8 9 32 20 54 28
54 26 63 -20 83 -38 16 -43 24 -43 69 0 10 -3 15 -8 13 -4 -3 -6 -17 -3 -30 2
-14 0 -25 -6 -25 -5 0 -10 4 -10 10 0 5 -6 7 -14 4 -8 -3 -17 0 -22 7 -4 7 -3
10 4 5 6 -3 13 -2 16 3 7 11 -13 9 -32 -3 -8 -5 -18 -4 -25 3 -6 6 -21 11 -33
11 -13 0 -24 7 -27 18 -4 16 -5 16 -6 0 0 -10 -6 -18 -12 -18 -5 0 -8 3 -6 8
3 4 -9 7 -26 6 -18 -1 -35 4 -39 10 -5 8 -8 7 -8 -1 0 -7 -5 -13 -11 -13 -5 0
-7 6 -3 13 5 9 4 9 -6 0 -9 -8 -19 -9 -30 -3 -10 5 -20 6 -24 3z"/>
<path d="M1956 1967 c3 -10 9 -15 12 -12 3 3 0 11 -7 18 -10 9 -11 8 -5 -6z"/>
<path d="M620 1960 c8 -5 20 -10 25 -10 6 0 3 5 -5 10 -8 5 -19 10 -25 10 -5
0 -3 -5 5 -10z"/>
<path d="M1700 1960 c18 -12 30 -13 30 -2 0 4 -10 9 -22 9 -18 2 -20 0 -8 -7z"/>
<path d="M2226 1959 c4 -8 30 -6 38 2 3 3 -5 5 -19 5 -13 0 -22 -3 -19 -7z"/>
<path d="M2300 1960 c0 -5 9 -8 20 -7 21 1 18 10 -5 13 -8 1 -15 -2 -15 -6z"/>
<path d="M2360 1955 c-19 -22 -8 -25 13 -3 9 10 13 18 8 18 -5 0 -14 -7 -21
-15z"/>
<path d="M2672 1954 c10 -10 20 -16 22 -13 3 3 -5 11 -17 18 -21 13 -21 12 -5
-5z"/>
<path d="M2786 1958 c3 -5 10 -6 15 -3 13 9 11 12 -6 12 -8 0 -12 -4 -9 -9z"/>
<path d="M267 1935 c3 -8 9 -12 14 -9 12 7 11 11 -5 17 -10 4 -13 1 -9 -8z"/>
<path d="M317 1930 c-9 -11 -13 -20 -7 -20 5 0 14 9 20 20 6 11 9 20 8 20 -2
0 -11 -9 -21 -20z"/>
<path d="M605 1940 c-3 -5 -1 -18 5 -27 9 -15 10 -14 4 6 -4 17 -3 21 6 16 9
-5 11 -4 6 3 -9 15 -13 15 -21 2z"/>
<path d="M655 1939 c-6 -8 -4 -10 5 -4 9 5 10 1 6 -16 -6 -21 -6 -22 5 -6 7
13 8 22 1 29 -6 6 -12 6 -17 -3z"/>
<path d="M1150 1946 c0 -2 7 -7 16 -10 8 -3 12 -2 9 4 -6 10 -25 14 -25 6z"/>
<path d="M1200 1940 c-9 -6 -10 -10 -3 -10 6 0 15 5 18 10 8 12 4 12 -15 0z"/>
<path d="M2175 1940 c3 -5 8 -10 11 -10 2 0 4 5 4 10 0 6 -5 10 -11 10 -5 0
-7 -4 -4 -10z"/>
<path d="M2273 1943 c4 -3 -1 -16 -10 -27 -18 -21 -18 -21 5 -2 24 21 29 36
10 36 -6 0 -8 -3 -5 -7z"/>
<path d="M2390 1941 c0 -6 5 -13 12 -17 6 -4 8 -3 4 4 -3 5 0 13 6 15 8 3 6 6
-4 6 -10 1 -18 -3 -18 -8z"/>
<path d="M707 1926 c-4 -10 -1 -13 8 -9 8 3 12 9 9 14 -7 12 -11 11 -17 -5z"/>
<path d="M1073 1925 c0 -8 4 -12 9 -9 5 3 6 10 3 15 -9 13 -12 11 -12 -6z"/>
<path d="M2366 1923 c-8 -20 9 -40 19 -22 6 8 4 10 -5 4 -9 -5 -10 -2 -5 14 8
25 0 29 -9 4z"/>
<path d="M2316 1914 c-20 -19 -20 -25 -2 -18 8 3 17 12 20 20 7 18 1 18 -18
-2z"/>
<path d="M2661 1914 c0 -11 3 -14 6 -6 3 7 2 16 -1 19 -3 4 -6 -2 -5 -13z"/>
<path d="M2685 1920 c-3 -6 1 -7 9 -4 18 7 21 14 7 14 -6 0 -13 -4 -16 -10z"/>
<path d="M2753 1923 c4 -3 1 -13 -6 -22 -11 -14 -10 -14 6 -2 20 15 22 31 5
31 -6 0 -8 -3 -5 -7z"/>
<path d="M633 1905 c0 -8 4 -15 9 -15 4 0 8 4 8 9 0 6 -4 12 -8 15 -5 3 -9 -1
-9 -9z"/>
<path d="M215 1900 c-3 -5 -1 -10 4 -10 6 0 11 5 11 10 0 6 -2 10 -4 10 -3 0
-8 -4 -11 -10z"/>
<path d="M590 1901 c0 -10 29 -36 34 -30 1 2 -6 12 -16 22 -10 9 -18 13 -18 8z"/>
<path d="M668 1888 c-10 -10 -14 -18 -9 -18 10 0 36 29 30 34 -2 1 -12 -6 -21
-16z"/>
<path d="M751 1893 c7 -12 15 -20 18 -17 3 2 -3 12 -13 22 -17 16 -18 16 -5
-5z"/>
<path d="M816 1902 c-3 -5 1 -9 9 -9 8 0 12 4 9 9 -3 4 -7 8 -9 8 -2 0 -6 -4
-9 -8z"/>
<path d="M2710 1900 c0 -5 5 -10 11 -10 5 0 7 5 4 10 -3 6 -8 10 -11 10 -2 0
-4 -4 -4 -10z"/>
<path d="M2690 1891 c0 -7 -5 -9 -12 -5 -7 5 -8 3 -3 -5 5 -9 10 -10 18 -2 6
6 8 14 4 18 -4 3 -7 1 -7 -6z"/>
<path d="M322 1883 c-6 -2 -9 -10 -5 -16 4 -7 0 -8 -13 -3 -16 6 -17 5 -6 -6
11 -11 16 -10 26 4 7 10 17 14 21 10 5 -4 5 -1 1 6 -4 6 -8 12 -9 11 -1 0 -8
-3 -15 -6z"/>
<path d="M716 1882 c-3 -5 1 -9 9 -9 8 0 12 4 9 9 -3 4 -7 8 -9 8 -2 0 -6 -4
-9 -8z"/>
<path d="M1113 1872 c0 -10 7 -19 14 -19 9 0 10 4 3 12 -5 7 -7 15 -3 18 3 4
1 7 -5 7 -6 0 -10 -8 -9 -18z"/>
<path d="M1195 1880 c-3 -5 -1 -10 4 -10 6 0 11 5 11 10 0 6 -2 10 -4 10 -3 0
-8 -4 -11 -10z"/>
<path d="M1940 1886 c0 -2 8 -10 18 -17 15 -13 16 -12 3 4 -13 16 -21 21 -21
13z"/>
<path d="M2245 1880 c-2 -3 7 -6 21 -6 13 0 24 3 24 7 0 9 -40 8 -45 -1z"/>
<path d="M2330 1878 c0 -4 4 -8 9 -8 6 0 12 4 15 8 3 5 -1 9 -9 9 -8 0 -15 -4
-15 -9z"/>
<path d="M2379 1880 c-6 -4 1 -7 15 -7 14 0 26 3 26 7 0 3 -7 7 -15 7 -8 0
-19 -4 -26 -7z"/>
<path d="M2786 1882 c-3 -5 1 -9 9 -9 8 0 12 4 9 9 -3 4 -7 8 -9 8 -2 0 -6 -4
-9 -8z"/>
<path d="M590 1860 c0 -5 5 -10 11 -10 5 0 7 5 4 10 -3 6 -8 10 -11 10 -2 0
-4 -4 -4 -10z"/>
<path d="M670 1860 c-9 -6 -10 -10 -3 -10 6 0 15 5 18 10 8 12 4 12 -15 0z"/>
<path d="M1055 1860 c3 -5 8 -10 11 -10 2 0 4 5 4 10 0 6 -5 10 -11 10 -5 0
-7 -4 -4 -10z"/>
<path d="M2695 1861 c-6 -11 13 -26 22 -17 4 3 1 6 -6 6 -7 0 -9 5 -6 10 3 6
4 10 1 10 -3 0 -7 -4 -11 -9z"/>
<path d="M2750 1855 c5 -6 8 -22 5 -35 -2 -12 -1 -20 3 -16 13 13 10 63 -4 63
-9 0 -11 -4 -4 -12z"/>
<path d="M254 1840 c0 -13 5 -16 16 -11 8 5 22 6 30 3 8 -2 12 -2 8 2 -3 4
-12 8 -20 10 -7 1 -18 4 -23 8 -6 4 -11 -2 -11 -12z"/>
<path d="M628 1853 c7 -3 16 -2 19 1 4 3 -2 6 -13 5 -11 0 -14 -3 -6 -6z"/>
<path d="M730 1857 c0 -2 6 -10 14 -16 11 -9 16 -9 22 1 4 7 4 10 -1 6 -4 -4
-14 -3 -22 3 -7 6 -13 9 -13 6z"/>
<path d="M2230 1856 c0 -2 8 -10 18 -17 15 -13 16 -12 3 4 -13 16 -21 21 -21
13z"/>
<path d="M2310 1849 c0 -5 -4 -8 -8 -5 -5 3 -9 -2 -9 -10 0 -9 4 -11 10 -5 12
12 39 2 30 -12 -3 -6 -1 -7 5 -3 15 9 15 9 -8 29 -11 9 -20 12 -20 6z"/>
<path d="M2350 1849 c0 -5 5 -7 10 -4 6 3 10 8 10 11 0 2 -4 4 -10 4 -5 0 -10
-5 -10 -11z"/>
<path d="M682 1841 c-11 -6 -9 -9 6 -13 15 -4 19 -2 15 8 -6 16 -4 16 -21 5z"/>
<path d="M1150 1839 c0 -5 5 -7 10 -4 6 3 10 8 10 11 0 2 -4 4 -10 4 -5 0 -10
-5 -10 -11z"/>
<path d="M2673 1835 c0 -8 4 -15 9 -15 4 0 8 4 8 9 0 6 -4 12 -8 15 -5 3 -9
-1 -9 -9z"/>
<path d="M2380 1836 c0 -2 7 -6 15 -10 8 -3 15 -1 15 4 0 6 -7 10 -15 10 -8 0
-15 -2 -15 -4z"/>
<path d="M320 1820 c-8 -5 -10 -10 -5 -10 6 0 3 -5 -5 -10 -9 -6 -10 -10 -3
-10 7 0 17 9 23 20 12 23 11 24 -10 10z"/>
<path d="M990 1825 c0 -7 30 -13 34 -7 3 4 -4 9 -15 9 -10 1 -19 0 -19 -2z"/>
<path d="M1120 1810 c-6 -11 -8 -20 -6 -20 3 0 10 9 16 20 6 11 8 20 6 20 -3
0 -10 -9 -16 -20z"/>
<path d="M1899 1828 c-6 -21 -5 -38 1 -38 5 0 8 9 7 20 -1 17 -5 26 -8 18z"/>
<path d="M2720 1815 c-7 -8 -16 -12 -21 -9 -5 3 -9 0 -9 -5 0 -17 15 -13 35 9
10 11 16 20 13 20 -3 0 -11 -7 -18 -15z"/>
<path d="M630 1810 c0 -5 5 -10 10 -10 6 0 10 5 10 10 0 6 -4 10 -10 10 -5 0
-10 -4 -10 -10z"/>
<path d="M1095 1809 c-4 -6 -5 -12 -2 -15 2 -3 7 2 10 11 7 17 1 20 -8 4z"/>
<path d="M2255 1809 c-4 -6 -5 -12 -2 -15 2 -3 7 2 10 11 7 17 1 20 -8 4z"/>
<path d="M245 1799 c-3 -4 2 -6 10 -5 21 3 28 13 10 13 -9 0 -18 -4 -20 -8z"/>
<path d="M590 1805 c0 -5 5 -17 10 -25 5 -8 10 -10 10 -5 0 6 -5 17 -10 25 -5
8 -10 11 -10 5z"/>
<path d="M696 1793 c-6 -14 -5 -15 5 -6 7 7 10 15 7 18 -3 3 -9 -2 -12 -12z"/>
<path d="M2284 1799 c-4 -7 -3 -9 4 -5 5 3 13 0 15 -6 4 -9 6 -10 6 -1 1 17
-16 25 -25 12z"/>
<path d="M2396 1788 c5 -8 2 -9 -9 -5 -24 9 -21 0 4 -14 13 -6 19 -7 15 -1 -3
6 -1 12 6 14 7 3 5 7 -6 11 -11 5 -15 3 -10 -5z"/>
<path d="M2736 1787 c3 -10 9 -15 12 -12 3 3 0 11 -7 18 -10 9 -11 8 -5 -6z"/>
<path d="M670 1783 c0 -5 10 -18 23 -29 l22 -19 -20 25 c-11 14 -21 27 -22 29
-2 2 -3 0 -3 -6z"/>
<path d="M1015 1780 c3 -5 8 -10 11 -10 2 0 4 5 4 10 0 6 -5 10 -11 10 -5 0
-7 -4 -4 -10z"/>
<path d="M2350 1781 c0 -10 29 -36 34 -30 1 2 -6 12 -16 22 -10 9 -18 13 -18
8z"/>
<path d="M260 1771 c0 -6 4 -13 10 -16 6 -3 7 1 4 9 -7 18 -14 21 -14 7z"/>
<path d="M583 1758 c1 -15 6 -23 11 -18 4 4 4 16 -2 26 -9 16 -10 14 -9 -8z"/>
<path d="M2115 1771 c-3 -5 -2 -12 3 -15 5 -3 9 1 9 9 0 17 -3 19 -12 6z"/>
<path d="M2273 1765 c0 -8 4 -12 9 -9 5 3 6 10 3 15 -9 13 -12 11 -12 -6z"/>
<path d="M2670 1769 c0 -5 5 -7 10 -4 6 3 10 8 10 11 0 2 -4 4 -10 4 -5 0 -10
-5 -10 -11z"/>
<path d="M2714 1772 c4 -7 1 -12 -6 -12 -8 0 -6 -5 5 -11 10 -6 21 -8 24 -5 4
3 1 6 -6 6 -7 0 -10 4 -6 9 3 5 0 13 -6 17 -8 4 -9 3 -5 -4z"/>
<path d="M317 1755 c-8 -8 -18 -11 -22 -7 -5 4 -5 2 -1 -5 7 -13 36 -6 36 9 0
5 5 6 12 2 7 -4 8 -3 4 4 -9 15 -12 15 -29 -3z"/>
<path d="M627 1753 c3 -7 9 -13 13 -13 4 0 10 6 13 13 3 7 -3 13 -13 13 -10 0
-16 -6 -13 -13z"/>
<path d="M1064 1751 c0 -11 5 -17 13 -14 10 4 11 9 2 19 -15 18 -15 18 -15 -5z"/>
<path d="M1450 1760 c-9 -6 -10 -10 -3 -10 6 0 15 5 18 10 8 12 4 12 -15 0z"/>
<path d="M1871 1753 c6 -7 17 -13 23 -12 7 0 6 2 -2 6 -6 2 -10 8 -8 12 3 4
-1 8 -9 8 -11 0 -12 -4 -4 -14z"/>
<path d="M2301 1754 c0 -11 3 -14 6 -6 3 7 2 16 -1 19 -3 4 -6 -2 -5 -13z"/>
<path d="M2759 1753 c-13 -16 -12 -17 4 -4 16 13 21 21 13 21 -2 0 -10 -8 -17
-17z"/>
<path d="M235 1750 c-4 -6 -12 -7 -18 -4 -7 4 -8 3 -4 -1 13 -15 34 -14 34 1
0 17 -4 18 -12 4z"/>
<path d="M1414 1738 c-4 -7 -4 -10 1 -6 4 4 14 0 22 -10 13 -15 13 -15 3 6
-12 25 -16 27 -26 10z"/>
<path d="M1510 1739 c0 -5 5 -7 10 -4 6 3 10 8 10 11 0 2 -4 4 -10 4 -5 0 -10
-5 -10 -11z"/>
<path d="M1540 1746 c0 -2 7 -6 15 -10 8 -3 15 -1 15 4 0 6 -7 10 -15 10 -8 0
-15 -2 -15 -4z"/>
<path d="M2670 1740 c0 -5 5 -10 10 -10 6 0 10 5 10 10 0 6 -4 10 -10 10 -5 0
-10 -4 -10 -10z"/>
<path d="M261 1737 c2 -1 13 -9 24 -17 19 -14 19 -14 6 3 -7 9 -18 17 -24 17
-6 0 -8 -1 -6 -3z"/>
<path d="M1670 1738 c0 -2 9 -11 20 -21 11 -9 20 -13 20 -7 0 5 -9 14 -20 20
-11 6 -20 9 -20 8z"/>
<path d="M1914 1720 c0 -13 4 -16 10 -10 7 7 7 13 0 20 -6 6 -10 3 -10 -10z"/>
<path d="M2337 1729 c7 -7 15 -10 18 -7 3 3 -2 9 -12 12 -14 6 -15 5 -6 -5z"/>
<path d="M2382 1724 c-7 -8 -8 -14 -3 -14 10 0 25 19 20 25 -2 1 -10 -3 -17
-11z"/>
<path d="M626 1715 c10 -8 23 -15 28 -15 6 0 1 7 -10 15 -10 8 -23 15 -28 15
-6 0 -1 -7 10 -15z"/>
<path d="M672 1725 c3 -3 16 -8 28 -10 12 -2 20 -1 16 2 -4 4 -16 8 -28 10
-12 2 -19 1 -16 -2z"/>
<path d="M1465 1719 c-11 -16 -1 -19 13 -3 7 8 8 14 3 14 -5 0 -13 -5 -16 -11z"/>
<path d="M1542 1716 c7 -8 15 -12 17 -11 5 6 -10 25 -20 25 -5 0 -4 -6 3 -14z"/>
<path d="M1593 1707 c-1 -11 -1 -18 0 -16 2 2 8 11 15 20 9 12 9 16 -1 16 -7
0 -14 -9 -14 -20z"/>
<path d="M1880 1716 c0 -8 4 -17 9 -20 5 -4 7 3 4 14 -6 23 -13 26 -13 6z"/>
<path d="M2755 1722 c3 -3 -1 -12 -7 -21 -8 -10 -4 -9 10 3 26 23 26 23 7 23
-8 0 -13 -3 -10 -5z"/>
<path d="M1401 1713 c-1 -17 16 -25 25 -12 4 7 3 9 -4 5 -5 -3 -13 0 -15 6 -4
9 -6 10 -6 1z"/>
<path d="M1495 1711 c-3 -5 0 -13 6 -17 7 -4 9 -3 5 4 -3 5 0 13 6 15 9 4 10
6 1 6 -6 1 -14 -3 -18 -8z"/>
<path d="M320 1690 c-6 -11 -8 -20 -6 -20 3 0 10 9 16 20 6 11 8 20 6 20 -3 0
-10 -9 -16 -20z"/>
<path d="M605 1700 c-3 -5 -1 -18 5 -27 9 -15 10 -14 4 6 -4 17 -3 21 6 16 9
-5 11 -4 6 3 -9 15 -13 15 -21 2z"/>
<path d="M726 1702 c-3 -5 1 -9 9 -9 8 0 12 4 9 9 -3 4 -7 8 -9 8 -2 0 -6 -4
-9 -8z"/>
<path d="M1615 1701 c-9 -16 13 -23 35 -11 11 6 20 13 20 16 0 2 -9 0 -19 -6
-25 -13 -34 -13 -26 0 3 6 4 10 1 10 -3 0 -7 -4 -11 -9z"/>
<path d="M1668 1688 c-10 -10 -14 -18 -9 -18 10 0 36 29 30 34 -2 1 -12 -6
-21 -16z"/>
<path d="M2356 1698 c5 -7 2 -9 -9 -5 -11 4 -14 2 -10 -9 4 -12 8 -12 22 -2 9
7 17 13 19 14 2 1 -4 4 -13 8 -11 4 -14 2 -9 -6z"/>
<path d="M2399 1708 c-5 -18 -6 -38 -1 -34 7 8 12 36 6 36 -2 0 -4 -1 -5 -2z"/>
<path d="M2695 1701 c-9 -15 15 -25 28 -12 9 9 7 10 -7 5 -13 -5 -17 -4 -12 4
4 7 5 12 2 12 -3 0 -7 -4 -11 -9z"/>
<path d="M286 1675 c9 -14 18 -25 20 -25 2 0 -2 11 -8 25 -6 14 -15 25 -20 25
-5 0 -1 -11 8 -25z"/>
<path d="M694 1680 c0 -13 4 -16 10 -10 7 7 7 13 0 20 -6 6 -10 3 -10 -10z"/>
<path d="M1435 1689 c-4 -6 -5 -12 -2 -15 2 -3 7 2 10 11 7 17 1 20 -8 4z"/>
<path d="M650 1686 c0 -2 7 -7 16 -10 8 -3 12 -2 9 4 -6 10 -25 14 -25 6z"/>
<path d="M1091 1674 c0 -11 3 -14 6 -6 3 7 2 16 -1 19 -3 4 -6 -2 -5 -13z"/>
<path d="M1380 1679 c0 -5 5 -7 10 -4 6 3 10 8 10 11 0 2 -4 4 -10 4 -5 0 -10
-5 -10 -11z"/>
<path d="M1462 1682 c-8 -6 -2 -9 18 -9 20 0 26 3 18 9 -7 4 -15 8 -18 8 -3 0
-11 -4 -18 -8z"/>
<path d="M1565 1680 c-3 -5 -1 -10 4 -10 6 0 11 5 11 10 0 6 -2 10 -4 10 -3 0
-8 -4 -11 -10z"/>
<path d="M1695 1680 c-3 -5 -1 -10 4 -10 6 0 11 5 11 10 0 6 -2 10 -4 10 -3 0
-8 -4 -11 -10z"/>
<path d="M1820 1668 c-11 -22 -10 -22 4 -4 16 20 16 20 32 0 14 -18 15 -18 4
4 -6 12 -15 22 -20 22 -5 0 -14 -10 -20 -22z"/>
<path d="M2673 1675 c0 -8 4 -15 9 -15 4 0 8 4 8 9 0 6 -4 12 -8 15 -5 3 -9
-1 -9 -9z"/>
<path d="M1755 1670 c6 -10 4 -12 -11 -6 -15 6 -17 5 -6 -5 9 -9 15 -10 23 -2
8 8 7 13 -2 18 -8 6 -10 4 -4 -5z"/>
<path d="M215 1660 c3 -5 8 -10 11 -10 2 0 4 5 4 10 0 6 -5 10 -11 10 -5 0 -7
-4 -4 -10z"/>
<path d="M590 1661 c0 -10 29 -36 34 -30 1 2 -6 12 -16 22 -10 9 -18 13 -18 8z"/>
<path d="M950 1665 c0 -7 30 -13 34 -7 3 4 -4 9 -15 9 -10 1 -19 0 -19 -2z"/>
<path d="M1350 1660 c0 -5 5 -10 10 -10 6 0 10 5 10 10 0 6 -4 10 -10 10 -5 0
-10 -4 -10 -10z"/>
<path d="M1535 1659 c-5 -8 -4 -10 3 -5 7 4 12 3 12 -3 0 -5 -6 -12 -12 -14
-10 -4 -10 -6 -1 -6 17 -1 27 19 15 31 -6 6 -12 6 -17 -3z"/>
<path d="M1595 1661 c3 -5 1 -12 -5 -16 -5 -3 -10 -11 -10 -18 0 -6 7 -2 15 9
17 23 19 34 4 34 -5 0 -8 -4 -4 -9z"/>
<path d="M1907 1659 c7 -7 15 -10 18 -7 3 3 -2 9 -12 12 -14 6 -15 5 -6 -5z"/>
<path d="M637 1649 c7 -7 15 -10 18 -7 3 3 -2 9 -12 12 -14 6 -15 5 -6 -5z"/>
<path d="M1078 1638 c4 -16 2 -19 -9 -13 -8 5 -10 4 -6 0 15 -18 35 -13 30 6
-3 11 -9 21 -13 24 -5 3 -6 -5 -2 -17z"/>
<path d="M1400 1654 c0 -6 7 -19 16 -30 14 -18 14 -18 3 6 -14 31 -19 36 -19
24z"/>
<path d="M1482 1644 c10 -10 20 -16 22 -13 3 3 -5 11 -17 18 -21 13 -21 12 -5
-5z"/>
<path d="M1624 1646 c-16 -12 -17 -17 -6 -28 11 -11 12 -10 6 6 -5 13 -4 17 3
13 6 -4 13 0 17 8 7 19 5 19 -20 1z"/>
<path d="M1716 1645 c10 -8 23 -15 28 -15 6 0 1 7 -10 15 -10 8 -23 15 -28 15
-6 0 -1 -7 10 -15z"/>
<path d="M280 1640 c8 -5 20 -10 25 -10 6 0 3 5 -5 10 -8 5 -19 10 -25 10 -5
0 -3 -5 5 -10z"/>
<path d="M317 1630 c-9 -11 -12 -20 -7 -20 6 0 13 7 16 15 4 8 11 12 17 8 6
-3 7 -1 3 5 -9 15 -9 15 -29 -8z"/>
<path d="M710 1638 c0 -4 4 -8 9 -8 6 0 12 4 15 8 3 5 -1 9 -9 9 -8 0 -15 -4
-15 -9z"/>
<path d="M1775 1640 c3 -5 8 -10 11 -10 2 0 4 5 4 10 0 6 -5 10 -11 10 -5 0
-7 -4 -4 -10z"/>
<path d="M1825 1641 c-3 -6 3 -9 14 -8 11 0 17 5 15 9 -7 11 -22 10 -29 -1z"/>
<path d="M1880 1635 c-7 -9 -11 -17 -9 -20 3 -2 10 5 17 15 14 24 10 26 -8 5z"/>
<path d="M2275 1641 c-3 -5 -2 -12 3 -15 5 -3 9 1 9 9 0 17 -3 19 -12 6z"/>
<path d="M2370 1639 c0 -5 5 -7 10 -4 6 3 10 8 10 11 0 2 -4 4 -10 4 -5 0 -10
-5 -10 -11z"/>
<path d="M2672 1634 c10 -10 20 -16 22 -13 3 3 -5 11 -17 18 -21 13 -21 12 -5
-5z"/>
<path d="M1670 1629 c0 -5 5 -7 10 -4 6 3 10 8 10 11 0 2 -4 4 -10 4 -5 0 -10
-5 -10 -11z"/>
<path d="M266 1622 c-3 -5 1 -9 9 -9 8 0 12 4 9 9 -3 4 -7 8 -9 8 -2 0 -6 -4
-9 -8z"/>
<path d="M590 1620 c0 -5 5 -10 11 -10 5 0 7 5 4 10 -3 6 -8 10 -11 10 -2 0
-4 -4 -4 -10z"/>
<path d="M630 1620 c-9 -6 -10 -10 -3 -10 6 0 15 5 18 10 8 12 4 12 -15 0z"/>
<path d="M676 1615 c-3 -9 -10 -13 -16 -10 -5 3 -10 1 -10 -4 0 -6 4 -11 9
-11 12 0 35 29 29 36 -3 3 -8 -2 -12 -11z"/>
<path d="M1556 1614 c-3 -9 -2 -22 2 -31 6 -10 9 -5 9 16 0 35 -2 38 -11 15z"/>
<path d="M1755 1620 c-3 -5 -1 -10 4 -10 6 0 11 5 11 10 0 6 -2 10 -4 10 -3 0
-8 -4 -11 -10z"/>
<path d="M2310 1621 c0 -6 4 -12 8 -15 5 -3 9 1 9 9 0 8 -4 15 -9 15 -4 0 -8
-4 -8 -9z"/>
<path d="M2390 1621 c0 -6 5 -13 12 -17 6 -4 8 -3 4 4 -3 5 0 13 6 15 8 3 6 6
-4 6 -10 1 -18 -3 -18 -8z"/>
<path d="M2716 1618 c3 -5 10 -6 15 -3 13 9 11 12 -6 12 -8 0 -12 -4 -9 -9z"/>
<path d="M1470 1609 c0 -5 5 -7 10 -4 6 3 10 8 10 11 0 2 -4 4 -10 4 -5 0 -10
-5 -10 -11z"/>
<path d="M1518 1613 c7 -3 16 -2 19 1 4 3 -2 6 -13 5 -11 0 -14 -3 -6 -6z"/>
<path d="M1701 1593 c-10 -26 -10 -27 4 -9 8 11 15 23 15 28 0 15 -7 8 -19
-19z"/>
<path d="M1780 1611 c0 -6 4 -13 10 -16 6 -3 7 1 4 9 -7 18 -14 21 -14 7z"/>
<path d="M1902 1604 c10 -10 20 -16 22 -13 3 3 -5 11 -17 18 -21 13 -21 12 -5
-5z"/>
<path d="M2367 1607 c-3 -8 1 -14 8 -14 7 0 11 6 8 14 -3 7 -6 13 -8 13 -2 0
-5 -6 -8 -13z"/>
<path d="M1037 1595 c-4 -8 -3 -16 1 -19 4 -3 9 4 9 15 2 23 -3 25 -10 4z"/>
<path d="M1401 1594 c0 -11 3 -14 6 -6 3 7 2 16 -1 19 -3 4 -6 -2 -5 -13z"/>
<path d="M1586 1599 c3 -5 9 -7 14 -4 4 3 11 0 13 -5 3 -6 4 -5 3 1 -1 7 -10
13 -19 15 -9 1 -15 -2 -11 -7z"/>
<path d="M2275 1600 c3 -5 8 -10 11 -10 2 0 4 5 4 10 0 6 -5 10 -11 10 -5 0
-7 -4 -4 -10z"/>
<path d="M2661 1594 c0 -11 3 -14 6 -6 3 7 2 16 -1 19 -3 4 -6 -2 -5 -13z"/>
<path d="M2685 1600 c-3 -6 1 -7 9 -4 18 7 21 14 7 14 -6 0 -13 -4 -16 -10z"/>
<path d="M1448 1593 c6 -2 9 -10 6 -15 -4 -7 -2 -8 5 -4 13 9 5 26 -12 25 -9
0 -8 -2 1 -6z"/>
<path d="M1670 1590 c-9 -6 -10 -10 -3 -10 6 0 15 5 18 10 8 12 4 12 -15 0z"/>
<path d="M1830 1589 c0 -5 -5 -7 -12 -3 -6 4 -8 3 -5 -3 7 -11 43 -10 54 2 5
4 2 5 -4 1 -7 -4 -13 -2 -13 3 0 6 -4 11 -10 11 -5 0 -10 -5 -10 -11z"/>
<path d="M281 1567 c17 -32 22 -35 14 -8 -6 18 -4 22 6 16 8 -5 10 -4 6 0 -4
5 -14 10 -22 11 -12 2 -13 -2 -4 -19z"/>
<path d="M320 1570 c-6 -11 -8 -20 -6 -20 3 0 10 9 16 20 6 11 8 20 6 20 -3 0
-10 -9 -16 -20z"/>
<path d="M715 1583 c3 -3 -3 -16 -12 -27 -14 -15 -14 -18 -2 -8 9 6 18 9 22 6
3 -3 4 1 3 10 -1 8 -5 18 -9 21 -4 3 -5 2 -2 -2z"/>
<path d="M1067 1583 c-3 -5 5 -8 18 -8 13 0 21 3 18 8 -2 4 -10 7 -18 7 -8 0
-16 -3 -18 -7z"/>
<path d="M1524 1579 c-3 -6 -1 -16 5 -22 9 -9 10 -7 5 7 -6 15 -4 17 6 11 9
-5 11 -4 6 3 -9 15 -13 15 -22 1z"/>
<path d="M1630 1579 c0 -5 5 -7 10 -4 6 3 10 8 10 11 0 2 -4 4 -10 4 -5 0 -10
-5 -10 -11z"/>
<path d="M1712 1570 c-18 -29 -15 -38 4 -12 9 13 14 25 12 27 -2 2 -9 -5 -16
-15z"/>
<path d="M1782 1577 c10 -8 15 -17 12 -20 -3 -3 5 -10 18 -17 20 -10 21 -10 6
3 -10 8 -15 17 -12 20 3 3 -5 10 -18 17 -20 10 -21 10 -6 -3z"/>
<path d="M2710 1581 c0 -6 4 -13 10 -16 6 -3 7 1 4 9 -7 18 -14 21 -14 7z"/>
<path d="M254 1566 c1 -8 5 -18 8 -22 4 -3 5 1 4 10 -1 8 -5 18 -8 22 -4 3 -5
-1 -4 -10z"/>
<path d="M630 1570 c0 -6 7 -13 15 -16 8 -4 12 -11 8 -17 -4 -6 -1 -7 7 -2 10
6 10 11 -3 20 -9 7 -14 15 -10 18 3 4 1 7 -5 7 -7 0 -12 -5 -12 -10z"/>
<path d="M1565 1558 l-20 -21 23 12 c12 6 22 16 22 21 0 13 -2 12 -25 -12z"/>
<path d="M1875 1570 c-3 -5 -3 -10 1 -10 4 0 -1 -7 -12 -16 -18 -14 -18 -15 4
-4 12 6 20 15 17 20 -3 4 1 11 7 13 9 4 10 6 1 6 -6 1 -15 -3 -18 -9z"/>
<path d="M2355 1570 c-3 -6 1 -7 9 -4 18 7 21 14 7 14 -6 0 -13 -4 -16 -10z"/>
<path d="M2690 1571 c0 -7 -5 -9 -12 -5 -7 5 -8 3 -3 -5 5 -9 10 -10 18 -2 6
6 8 14 4 18 -4 3 -7 1 -7 -6z"/>
<path d="M590 1565 c0 -5 5 -17 10 -25 5 -8 10 -10 10 -5 0 6 -5 17 -10 25 -5
8 -10 11 -10 5z"/>
<path d="M1077 1556 c-4 -10 -1 -13 8 -9 8 3 12 9 9 14 -7 12 -11 11 -17 -5z"/>
<path d="M1470 1562 c0 -5 7 -9 15 -9 8 0 12 4 9 9 -3 4 -9 8 -15 8 -5 0 -9
-4 -9 -8z"/>
<path d="M1602 1558 c-15 -15 -15 -28 0 -28 6 0 8 3 5 7 -4 3 -2 12 4 20 14
16 7 17 -9 1z"/>
<path d="M1645 1560 c-3 -6 1 -7 9 -4 18 7 21 14 7 14 -6 0 -13 -4 -16 -10z"/>
<path d="M1745 1557 c-14 -11 -15 -16 -5 -22 9 -5 11 -4 6 3 -7 11 6 17 27 13
5 -1 6 3 2 9 -8 13 -8 13 -30 -3z"/>
<path d="M1956 1558 c3 -5 10 -6 15 -3 13 9 11 12 -6 12 -8 0 -12 -4 -9 -9z"/>
<path d="M2319 1553 c-13 -16 -12 -17 4 -4 9 7 17 15 17 17 0 8 -8 3 -21 -13z"/>
<path d="M2379 1560 c-6 -4 1 -7 15 -7 14 0 26 3 26 7 0 3 -7 7 -15 7 -8 0
-19 -4 -26 -7z"/>
<path d="M966 1542 c-3 -5 1 -9 9 -9 8 0 12 4 9 9 -3 4 -7 8 -9 8 -2 0 -6 -4
-9 -8z"/>
<path d="M1640 1535 c-14 -8 -20 -14 -14 -15 5 0 19 7 30 15 24 18 16 19 -16
0z"/>
<path d="M1676 1535 c-9 -26 -7 -32 5 -12 6 10 9 21 6 23 -2 3 -7 -2 -11 -11z"/>
<path d="M2352 1519 c6 -16 12 -28 14 -26 5 5 -13 57 -20 57 -3 0 0 -14 6 -31z"/>
<path d="M2695 1541 c-6 -11 13 -26 22 -17 4 3 1 6 -6 6 -7 0 -9 5 -6 10 3 6
4 10 1 10 -3 0 -7 -4 -11 -9z"/>
<path d="M2749 1538 c7 -9 9 -23 5 -30 -6 -10 -4 -11 7 0 11 10 10 15 -6 30
-17 15 -18 15 -6 0z"/>
<path d="M583 1518 c1 -15 6 -23 11 -18 4 4 4 16 -2 26 -9 16 -10 14 -9 -8z"/>
<path d="M1756 1523 c-6 -14 -5 -15 5 -6 7 7 10 15 7 18 -3 3 -9 -2 -12 -12z"/>
<path d="M2387 1526 c-4 -10 -3 -15 3 -11 6 3 10 1 10 -6 0 -7 3 -10 6 -6 3 3
2 13 -4 22 -8 16 -9 16 -15 1z"/>
<path d="M262 1518 c-7 -7 -12 -17 -12 -22 0 -6 5 -3 11 7 7 12 17 16 32 12
17 -5 19 -4 7 4 -19 14 -23 14 -38 -1z"/>
<path d="M317 1510 c-9 -11 -12 -20 -7 -20 6 0 13 7 16 15 4 8 11 12 17 8 6
-3 7 -1 3 5 -9 15 -9 15 -29 -8z"/>
<path d="M630 1510 c6 -11 15 -20 20 -20 6 0 2 9 -7 20 -10 11 -19 20 -21 20
-1 0 2 -9 8 -20z"/>
<path d="M673 1513 c0 -11 7 -20 14 -20 10 0 10 4 1 16 -7 9 -13 18 -15 20 -1
2 -1 -5 0 -16z"/>
<path d="M715 1520 c-3 -5 -1 -10 4 -10 6 0 11 5 11 10 0 6 -2 10 -4 10 -3 0
-8 -4 -11 -10z"/>
<path d="M1701 1521 c-10 -7 -7 -9 12 -8 14 1 23 5 20 10 -6 9 -15 9 -32 -2z"/>
<path d="M1806 1517 c3 -10 9 -15 12 -12 3 3 0 11 -7 18 -10 9 -11 8 -5 -6z"/>
<path d="M1865 1519 c-4 -6 -5 -12 -2 -15 2 -3 7 2 10 11 7 17 1 20 -8 4z"/>
<path d="M2299 1513 c-13 -16 -12 -17 4 -4 9 7 17 15 17 17 0 8 -8 3 -21 -13z"/>
<path d="M2673 1515 c0 -8 4 -15 9 -15 4 0 8 4 8 9 0 6 -4 12 -8 15 -5 3 -9
-1 -9 -9z"/>
<path d="M1075 1510 c-4 -6 1 -7 11 -3 13 5 15 3 9 -7 -5 -9 -4 -11 4 -6 6 4
9 12 6 17 -8 12 -22 12 -30 -1z"/>
<path d="M1039 1493 c-13 -16 -12 -17 4 -4 9 7 17 15 17 17 0 8 -8 3 -21 -13z"/>
<path d="M1830 1500 c0 -5 5 -10 10 -10 6 0 10 5 10 10 0 6 -4 10 -10 10 -5 0
-10 -4 -10 -10z"/>
<path d="M2334 1502 c3 -5 2 -12 -4 -14 -5 -2 -6 -9 -1 -16 6 -10 10 -9 14 7
3 12 0 24 -5 28 -6 3 -8 1 -4 -5z"/>
<path d="M2720 1495 c-7 -8 -16 -13 -20 -10 -5 3 -11 2 -14 -3 -10 -17 24 -8
41 10 9 10 14 18 11 18 -3 0 -11 -7 -18 -15z"/>
<path d="M279 1498 c-5 -18 -6 -38 -1 -34 7 8 12 36 6 36 -2 0 -4 -1 -5 -2z"/>
<path d="M1708 1493 c6 -2 10 -8 8 -12 -3 -4 5 -8 16 -8 20 -2 20 -1 2 12 -11
8 -23 14 -29 14 -5 0 -4 -3 3 -6z"/>
<path d="M610 1486 c0 -2 7 -7 16 -10 8 -3 12 -2 9 4 -6 10 -25 14 -25 6z"/>
<path d="M1765 1479 c-4 -6 -5 -12 -2 -15 2 -3 7 2 10 11 7 17 1 20 -8 4z"/>
<path d="M1805 1480 c-3 -5 -1 -10 5 -10 6 0 8 -5 4 -12 -4 -7 -3 -8 4 -4 6 4
9 13 5 21 -6 18 -10 19 -18 5z"/>
<path d="M1075 1470 c-4 -6 1 -7 11 -3 13 5 15 3 9 -7 -5 -9 -4 -11 4 -6 6 4
9 12 6 17 -8 12 -22 12 -30 -1z"/>
<path d="M2390 1470 c0 -6 7 -10 15 -10 8 0 15 2 15 4 0 2 -7 6 -15 10 -8 3
-15 1 -15 -4z"/>
<path d="M240 1460 c-9 -6 -10 -10 -3 -10 6 0 15 5 18 10 8 12 4 12 -15 0z"/>
<path d="M293 1456 c-3 -5 -1 -6 5 -2 7 4 12 2 12 -3 0 -15 17 -14 23 2 6 15
-31 18 -40 3z"/>
<path d="M605 1460 c-3 -5 -1 -18 5 -27 9 -15 10 -14 4 6 -4 17 -3 21 6 16 9
-5 11 -4 6 3 -9 15 -13 15 -21 2z"/>
<path d="M706 1458 c3 -5 10 -6 15 -3 13 9 11 12 -6 12 -8 0 -12 -4 -9 -9z"/>
<path d="M973 1455 c0 -8 4 -12 9 -9 5 3 6 10 3 15 -9 13 -12 11 -12 -6z"/>
<path d="M1112 1450 c-18 -29 -15 -38 4 -12 9 13 14 25 12 27 -2 2 -9 -5 -16
-15z"/>
<path d="M2006 1462 c-3 -5 1 -9 9 -9 8 0 12 4 9 9 -3 4 -7 8 -9 8 -2 0 -6 -4
-9 -8z"/>
<path d="M2666 1457 c3 -10 9 -15 12 -12 3 3 0 11 -7 18 -10 9 -11 8 -5 -6z"/>
<path d="M1830 1445 c-7 -9 -11 -17 -9 -20 3 -2 10 5 17 15 14 24 10 26 -8 5z"/>
<path d="M1870 1450 c-8 -5 -10 -10 -5 -10 6 0 17 5 25 10 8 5 11 10 5 10 -5
0 -17 -5 -25 -10z"/>
<path d="M2286 1445 c-18 -14 -18 -14 1 -12 11 0 20 7 20 14 0 7 -1 13 -1 13
-1 0 -9 -7 -20 -15z"/>
<path d="M2359 1448 c15 -21 31 -23 31 -6 0 6 -3 8 -7 5 -3 -4 -13 -1 -22 6
-14 11 -14 10 -2 -5z"/>
<path d="M2707 1446 c-4 -10 -1 -13 8 -9 8 3 12 9 9 14 -7 12 -11 11 -17 -5z"/>
<path d="M196 1438 c3 -5 10 -6 15 -3 13 9 11 12 -6 12 -8 0 -12 -4 -9 -9z"/>
<path d="M1780 1440 c8 -5 20 -10 25 -10 6 0 3 5 -5 10 -8 5 -19 10 -25 10 -5
0 -3 -5 5 -10z"/>
<path d="M1900 1440 c-12 -7 -10 -9 7 -7 12 0 19 5 17 9 -6 10 -6 10 -24 -2z"/>
<path d="M2239 1433 c-13 -16 -12 -17 4 -4 9 7 17 15 17 17 0 8 -8 3 -21 -13z"/>
<path d="M630 1436 c0 -2 9 -6 20 -9 11 -3 18 -1 14 4 -5 9 -34 13 -34 5z"/>
<path d="M1135 1431 c-3 -5 0 -13 6 -17 8 -5 9 -3 4 6 -6 9 -1 10 16 5 19 -5
21 -4 9 4 -19 13 -27 14 -35 2z"/>
<path d="M1951 1427 c-8 -10 -7 -14 2 -14 8 0 14 6 14 14 0 7 -1 13 -2 13 -2
0 -8 -6 -14 -13z"/>
<path d="M590 1421 c0 -10 29 -36 34 -30 1 2 -6 12 -16 22 -10 9 -18 13 -18 8z"/>
<path d="M755 1420 c-3 -5 -1 -10 4 -10 6 0 11 5 11 10 0 6 -2 10 -4 10 -3 0
-8 -4 -11 -10z"/>
<path d="M1836 1413 c-6 -14 -5 -15 5 -6 7 7 10 15 7 18 -3 3 -9 -2 -12 -12z"/>
<path d="M2670 1420 c0 -5 5 -10 10 -10 6 0 10 5 10 10 0 6 -4 10 -10 10 -5 0
-10 -4 -10 -10z"/>
<path d="M2724 1419 c-3 -6 -2 -15 3 -20 5 -5 9 -1 9 11 0 23 -2 24 -12 9z"/>
<path d="M256 1403 c-6 -14 -5 -15 5 -6 7 7 10 15 7 18 -3 3 -9 -2 -12 -12z"/>
<path d="M1880 1411 c0 -7 -5 -9 -12 -5 -7 5 -8 3 -3 -5 5 -9 10 -10 18 -2 6
6 8 14 4 18 -4 3 -7 1 -7 -6z"/>
<path d="M2333 1396 c0 -11 1 -15 4 -8 3 6 9 10 14 6 5 -3 9 -1 9 4 0 21 -26
19 -27 -2z"/>
<path d="M2392 1400 c0 -14 2 -19 5 -12 2 6 2 18 0 25 -3 6 -5 1 -5 -13z"/>
<path d="M284 1394 c-18 -14 -18 -14 6 -3 31 14 36 19 24 19 -6 0 -19 -7 -30
-16z"/>
<path d="M656 1402 c-3 -5 1 -9 9 -9 8 0 12 4 9 9 -3 4 -7 8 -9 8 -2 0 -6 -4
-9 -8z"/>
<path d="M1181 1394 c0 -11 3 -14 6 -6 3 7 2 16 -1 19 -3 4 -6 -2 -5 -13z"/>
<path d="M2755 1402 c3 -3 -1 -12 -7 -21 -8 -10 -4 -9 10 3 26 23 26 23 7 23
-8 0 -13 -3 -10 -5z"/>
<path d="M1241 1393 c-1 -17 16 -25 25 -12 4 7 3 9 -4 5 -5 -3 -13 0 -15 6 -4
9 -6 10 -6 1z"/>
<path d="M1895 1391 c-3 -5 0 -13 6 -17 7 -4 9 -3 5 4 -3 6 2 13 11 15 16 4
16 5 1 6 -9 0 -19 -3 -23 -8z"/>
<path d="M590 1380 c0 -5 5 -10 11 -10 5 0 7 5 4 10 -3 6 -8 10 -11 10 -2 0
-4 -4 -4 -10z"/>
<path d="M1030 1386 c0 -2 7 -7 16 -10 8 -3 12 -2 9 4 -6 10 -25 14 -25 6z"/>
<path d="M1130 1380 c-9 -6 -10 -10 -3 -10 6 0 15 5 18 10 8 12 4 12 -15 0z"/>
<path d="M1156 1374 c-3 -9 -2 -22 2 -31 6 -10 9 -5 9 16 0 35 -2 38 -11 15z"/>
<path d="M1933 1377 c-3 -6 -1 -7 5 -3 6 3 15 -2 21 -11 9 -16 10 -16 8 3 -1
21 -23 28 -34 11z"/>
<path d="M2695 1381 c-9 -15 15 -25 28 -12 9 9 7 10 -7 5 -13 -5 -17 -4 -12 4
4 7 5 12 2 12 -3 0 -7 -4 -11 -9z"/>
<path d="M326 1363 c-6 -14 -5 -15 5 -6 7 7 10 15 7 18 -3 3 -9 -2 -12 -12z"/>
<path d="M628 1373 c7 -3 16 -2 19 1 4 3 -2 6 -13 5 -11 0 -14 -3 -6 -6z"/>
<path d="M2354 1360 c0 -13 4 -16 10 -10 7 7 7 13 0 20 -6 6 -10 3 -10 -10z"/>
<path d="M686 1362 c-3 -5 1 -9 9 -9 8 0 12 4 9 9 -3 4 -7 8 -9 8 -2 0 -6 -4
-9 -8z"/>
<path d="M1106 1356 c3 -8 14 -16 25 -19 25 -7 24 -3 -6 17 -19 13 -23 13 -19
2z"/>
<path d="M1220 1359 c0 -5 5 -7 10 -4 6 3 10 8 10 11 0 2 -4 4 -10 4 -5 0 -10
-5 -10 -11z"/>
<path d="M1270 1360 c0 -5 7 -7 15 -4 8 4 15 8 15 10 0 2 -7 4 -15 4 -8 0 -15
-4 -15 -10z"/>
<path d="M2400 1349 c-7 -11 -10 -23 -7 -25 2 -2 9 7 15 21 14 30 7 33 -8 4z"/>
<path d="M2673 1355 c0 -8 4 -15 9 -15 4 0 8 4 8 9 0 6 -4 12 -8 15 -5 3 -9
-1 -9 -9z"/>
<path d="M275 1350 c-4 -6 1 -7 11 -3 13 5 15 3 9 -7 -5 -9 -4 -11 4 -6 6 4 9
12 6 17 -8 12 -22 12 -30 -1z"/>
<path d="M993 1345 c0 -8 4 -12 9 -9 5 3 6 10 3 15 -9 13 -12 11 -12 -6z"/>
<path d="M1915 1350 c6 -10 4 -12 -9 -7 -10 4 -15 3 -11 -3 8 -13 35 -13 35
-1 0 6 -5 13 -12 17 -7 5 -8 3 -3 -6z"/>
<path d="M215 1340 c3 -5 8 -10 11 -10 2 0 4 5 4 10 0 6 -5 10 -11 10 -5 0 -7
-4 -4 -10z"/>
<path d="M667 1336 c5 -15 3 -17 -8 -11 -8 5 -11 4 -6 0 13 -15 36 -14 49 3
10 14 10 15 -2 5 -11 -10 -16 -9 -27 5 -12 16 -13 16 -6 -2z"/>
<path d="M1986 1342 c-3 -5 1 -9 9 -9 8 0 12 4 9 9 -3 4 -7 8 -9 8 -2 0 -6 -4
-9 -8z"/>
<path d="M1240 1334 c0 -6 7 -19 16 -30 14 -18 14 -18 3 6 -14 31 -19 36 -19
24z"/>
<path d="M1945 1321 c6 -18 4 -22 -6 -16 -8 5 -10 4 -6 0 4 -5 14 -10 22 -11
12 -2 13 2 4 19 -17 32 -22 35 -14 8z"/>
<path d="M264 1310 c0 -13 4 -16 10 -10 7 7 7 13 0 20 -6 6 -10 3 -10 -10z"/>
<path d="M590 1325 c0 -5 5 -17 10 -25 5 -8 10 -10 10 -5 0 6 -5 17 -10 25 -5
8 -10 11 -10 5z"/>
<path d="M1106 1318 c3 -5 10 -6 15 -3 13 9 11 12 -6 12 -8 0 -12 -4 -9 -9z"/>
<path d="M1280 1320 c-12 -7 -10 -9 8 -7 12 0 22 5 22 9 0 11 -12 10 -30 -2z"/>
<path d="M1330 1320 c0 -5 5 -10 10 -10 6 0 10 5 10 10 0 6 -4 10 -10 10 -5 0
-10 -4 -10 -10z"/>
<path d="M2350 1325 c0 -5 5 -17 10 -25 5 -8 10 -10 10 -5 0 6 -5 17 -10 25
-5 8 -10 11 -10 5z"/>
<path d="M2672 1314 c10 -10 20 -16 22 -13 3 3 -5 11 -17 18 -21 13 -21 12 -5
-5z"/>
<path d="M235 1311 c-3 -5 -2 -12 3 -15 5 -3 9 1 9 9 0 17 -3 19 -12 6z"/>
<path d="M1216 1303 c-6 -14 -5 -15 5 -6 7 7 10 15 7 18 -3 3 -9 -2 -12 -12z"/>
<path d="M2234 1300 c0 -13 4 -16 10 -10 7 7 7 13 0 20 -6 6 -10 3 -10 -10z"/>
<path d="M776 1298 c3 -5 10 -6 15 -3 13 9 11 12 -6 12 -8 0 -12 -4 -9 -9z"/>
<path d="M1070 1294 c6 -6 7 -13 4 -17 -3 -3 1 -4 10 -3 8 1 19 6 23 11 5 4 2
5 -6 0 -10 -6 -13 -4 -9 6 4 10 -1 15 -13 15 -12 0 -15 -4 -9 -12z"/>
<path d="M1175 1301 c-6 -11 13 -26 22 -17 4 3 1 6 -6 6 -7 0 -9 5 -6 10 3 6
4 10 1 10 -3 0 -7 -4 -11 -9z"/>
<path d="M1396 1293 c-4 -9 -3 -20 1 -24 4 -4 9 3 9 17 2 28 -1 31 -10 7z"/>
<path d="M2305 1300 c-3 -6 1 -7 9 -4 18 7 21 14 7 14 -6 0 -13 -4 -16 -10z"/>
<path d="M2716 1298 c3 -5 10 -6 15 -3 13 9 11 12 -6 12 -8 0 -12 -4 -9 -9z"/>
<path d="M322 1280 c-18 -29 -15 -38 4 -12 9 13 14 25 12 27 -2 2 -9 -5 -16
-15z"/>
<path d="M583 1278 c1 -15 6 -23 11 -18 4 4 4 16 -2 26 -9 16 -10 14 -9 -8z"/>
<path d="M665 1281 c6 -18 4 -22 -6 -16 -8 5 -11 4 -6 0 4 -5 16 -9 27 -10 19
-2 19 -1 3 19 -10 12 -20 23 -22 26 -2 3 0 -6 4 -19z"/>
<path d="M690 1296 c0 -2 8 -10 18 -17 15 -13 16 -12 3 4 -13 16 -21 21 -21
13z"/>
<path d="M1358 1293 c7 -3 16 -2 19 1 4 3 -2 6 -13 5 -11 0 -14 -3 -6 -6z"/>
<path d="M1423 1290 c2 -8 10 -15 17 -15 7 0 15 7 17 15 4 13 3 13 -6 0 -10
-13 -12 -13 -22 0 -9 13 -10 13 -6 0z"/>
<path d="M1913 1285 c0 -8 4 -15 9 -15 4 0 8 4 8 9 0 6 -4 12 -8 15 -5 3 -9
-1 -9 -9z"/>
<path d="M2275 1291 c-3 -5 -2 -12 3 -15 5 -3 9 1 9 9 0 17 -3 19 -12 6z"/>
<path d="M2346 1281 c4 -17 3 -21 -6 -16 -9 6 -11 4 -5 -4 5 -9 11 -9 17 -3 7
7 6 16 -1 29 -11 16 -11 15 -5 -6z"/>
<path d="M276 1274 c-11 -8 -16 -14 -10 -14 13 0 39 18 34 24 -3 2 -14 -2 -24
-10z"/>
<path d="M626 1277 c3 -10 9 -15 12 -12 3 3 0 11 -7 18 -10 9 -11 8 -5 -6z"/>
<path d="M1222 1282 c-8 -6 -2 -9 18 -9 20 0 26 3 18 9 -7 4 -15 8 -18 8 -3 0
-11 -4 -18 -8z"/>
<path d="M1517 1279 c7 -7 15 -10 18 -7 3 3 -2 9 -12 12 -14 6 -15 5 -6 -5z"/>
<path d="M2070 1280 c0 -5 5 -10 11 -10 5 0 7 5 4 10 -3 6 -8 10 -11 10 -2 0
-4 -4 -4 -10z"/>
<path d="M2387 1273 c6 -16 10 -16 16 0 3 8 -1 14 -8 14 -7 0 -11 -6 -8 -14z"/>
<path d="M2661 1274 c0 -11 3 -14 6 -6 3 7 2 16 -1 19 -3 4 -6 -2 -5 -13z"/>
<path d="M2685 1280 c-3 -6 1 -7 9 -4 18 7 21 14 7 14 -6 0 -13 -4 -16 -10z"/>
<path d="M1155 1270 c-3 -5 -1 -10 4 -10 6 0 11 5 11 10 0 6 -2 10 -4 10 -3 0
-8 -4 -11 -10z"/>
<path d="M1288 1273 c6 -2 9 -10 6 -15 -4 -7 -2 -8 5 -4 13 9 5 26 -12 25 -9
0 -8 -2 1 -6z"/>
<path d="M990 1260 c0 -5 5 -10 11 -10 5 0 7 5 4 10 -3 6 -8 10 -11 10 -2 0
-4 -4 -4 -10z"/>
<path d="M1308 1248 c-10 -10 -14 -18 -9 -18 10 0 36 29 30 34 -2 1 -12 -6
-21 -16z"/>
<path d="M1365 1260 c-3 -5 -1 -18 5 -27 9 -15 10 -14 4 6 -4 17 -3 21 6 16 9
-5 11 -4 6 3 -9 15 -13 15 -21 2z"/>
<path d="M1455 1259 c-4 -6 -5 -12 -2 -15 2 -3 7 2 10 11 7 17 1 20 -8 4z"/>
<path d="M1494 1259 c-4 -7 -3 -9 4 -5 5 3 13 0 15 -6 4 -9 6 -10 6 -1 1 17
-16 25 -25 12z"/>
<path d="M1550 1261 c0 -6 4 -12 8 -15 5 -3 9 1 9 9 0 8 -4 15 -9 15 -4 0 -8
-4 -8 -9z"/>
<path d="M2116 1258 c3 -5 10 -6 15 -3 13 9 11 12 -6 12 -8 0 -12 -4 -9 -9z"/>
<path d="M2176 1262 c-3 -4 4 -9 15 -9 23 -2 25 3 4 10 -8 4 -16 3 -19 -1z"/>
<path d="M2710 1261 c0 -6 4 -13 10 -16 6 -3 7 1 4 9 -7 18 -14 21 -14 7z"/>
<path d="M1097 1249 c7 -7 15 -10 18 -7 3 3 -2 9 -12 12 -14 6 -15 5 -6 -5z"/>
<path d="M1426 1241 c4 -17 3 -21 -6 -16 -9 6 -11 4 -5 -4 5 -9 11 -9 17 -3 7
7 6 16 -1 29 -11 16 -11 15 -5 -6z"/>
<path d="M2278 1253 c7 -3 16 -2 19 1 4 3 -2 6 -13 5 -11 0 -14 -3 -6 -6z"/>
<path d="M2310 1256 c0 -2 8 -10 18 -17 15 -13 16 -12 3 4 -13 16 -21 21 -21
13z"/>
<path d="M2690 1251 c0 -7 -5 -9 -12 -5 -7 5 -8 3 -3 -5 5 -9 10 -10 18 -2 6
6 8 14 4 18 -4 3 -7 1 -7 -6z"/>
<path d="M236 1241 c-3 -5 2 -15 12 -22 15 -12 16 -12 5 2 -7 9 -10 19 -6 22
3 4 4 7 0 7 -3 0 -8 -4 -11 -9z"/>
<path d="M610 1242 c0 -4 9 -8 20 -9 11 -1 20 2 20 5 0 4 -9 8 -20 9 -11 1
-20 -2 -20 -5z"/>
<path d="M1130 1240 c0 -5 5 -10 10 -10 6 0 10 5 10 10 0 6 -4 10 -10 10 -5 0
-10 -4 -10 -10z"/>
<path d="M1180 1240 c8 -5 20 -10 25 -10 6 0 3 5 -5 10 -8 5 -19 10 -25 10 -5
0 -3 -5 5 -10z"/>
<path d="M1471 1234 c0 -11 3 -14 6 -6 3 7 2 16 -1 19 -3 4 -6 -2 -5 -13z"/>
<path d="M1594 1235 c-4 -8 -11 -12 -17 -8 -6 3 -7 1 -3 -5 4 -6 13 -9 21 -6
8 4 13 10 10 14 -3 5 1 11 7 13 10 4 10 6 0 6 -7 1 -15 -6 -18 -14z"/>
<path d="M1935 1240 c3 -5 8 -10 11 -10 2 0 4 5 4 10 0 6 -5 10 -11 10 -5 0
-7 -4 -4 -10z"/>
<path d="M2381 1239 c17 -11 39 -12 39 -1 0 4 -12 8 -27 9 -19 1 -22 -1 -12
-8z"/>
<path d="M670 1230 c-9 -6 -10 -10 -3 -10 6 0 15 5 18 10 8 12 4 12 -15 0z"/>
<path d="M1230 1230 c-9 -6 -10 -10 -3 -10 6 0 15 5 18 10 8 12 4 12 -15 0z"/>
<path d="M2350 1236 c0 -3 9 -10 20 -16 11 -6 20 -8 20 -6 0 3 -9 10 -20 16
-11 6 -20 8 -20 6z"/>
<path d="M275 1221 c-3 -5 -2 -12 3 -15 5 -3 9 1 9 9 0 17 -3 19 -12 6z"/>
<path d="M1073 1223 c4 -3 -1 -16 -10 -27 -18 -21 -18 -21 5 -2 24 21 29 36
10 36 -6 0 -8 -3 -5 -7z"/>
<path d="M1165 1220 c-3 -5 -1 -18 5 -27 9 -15 10 -14 4 6 -4 17 -3 21 6 16 9
-5 11 -4 6 3 -9 15 -13 15 -21 2z"/>
<path d="M1255 1220 c-4 -6 1 -7 11 -3 12 4 15 3 10 -5 -5 -8 -2 -10 9 -5 13
5 14 7 3 14 -17 11 -26 11 -33 -1z"/>
<path d="M1316 1213 c-4 -9 -3 -20 1 -24 4 -4 9 3 9 17 2 28 -1 31 -10 7z"/>
<path d="M1393 1200 c0 -23 3 -28 9 -16 5 9 5 23 0 32 -6 12 -9 7 -9 -16z"/>
<path d="M1510 1224 c0 -5 7 -18 15 -28 8 -11 15 -16 15 -10 0 5 -7 18 -15 28
-8 11 -15 16 -15 10z"/>
<path d="M1553 1200 c0 -23 3 -28 9 -16 5 9 5 23 0 32 -6 12 -9 7 -9 -16z"/>
<path d="M2135 1220 c3 -5 8 -10 11 -10 2 0 4 5 4 10 0 6 -5 10 -11 10 -5 0
-7 -4 -4 -10z"/>
<path d="M2273 1210 c19 -25 20 -26 14 -8 -3 9 -1 19 6 21 7 3 2 4 -10 4 -18
-1 -20 -4 -10 -17z"/>
<path d="M2316 1217 c3 -10 9 -15 12 -12 3 3 0 11 -7 18 -10 9 -11 8 -5 -6z"/>
<path d="M2695 1220 c-7 -11 22 -26 32 -16 4 3 -1 6 -11 6 -9 0 -14 5 -11 10
3 6 4 10 1 10 -3 0 -8 -5 -11 -10z"/>
<path d="M2750 1215 c5 -6 8 -22 5 -35 -2 -12 -1 -20 3 -16 13 13 10 63 -4 63
-9 0 -11 -4 -4 -12z"/>
<path d="M303 1210 c2 -8 10 -15 17 -15 7 0 15 7 17 15 4 13 3 13 -6 0 -10
-13 -12 -13 -22 0 -9 13 -10 13 -6 0z"/>
<path d="M595 1210 c3 -5 8 -10 11 -10 2 0 4 5 4 10 0 6 -5 10 -11 10 -5 0 -7
-4 -4 -10z"/>
<path d="M1111 1193 c-10 -24 -9 -26 2 -11 8 10 17 15 21 11 4 -4 4 0 0 10 -8
22 -9 22 -23 -10z"/>
<path d="M1344 1209 c1 -7 10 -13 19 -15 9 -1 15 2 11 7 -3 5 -9 7 -14 4 -4
-3 -11 0 -13 5 -3 6 -4 5 -3 -1z"/>
<path d="M1937 1207 c-3 -8 1 -14 8 -14 7 0 11 6 8 14 -3 7 -6 13 -8 13 -2 0
-5 -6 -8 -13z"/>
<path d="M658 1192 c4 -10 7 -12 10 -4 2 7 9 9 15 5 7 -3 8 -2 4 2 -14 16 -36
14 -29 -3z"/>
<path d="M1215 1200 c3 -5 8 -10 11 -10 2 0 4 5 4 10 0 6 -5 10 -11 10 -5 0
-7 -4 -4 -10z"/>
<path d="M1432 1194 c-7 -8 -8 -14 -3 -14 10 0 25 19 20 25 -2 1 -10 -3 -17
-11z"/>
<path d="M1485 1200 c-3 -5 -1 -10 4 -10 6 0 11 5 11 10 0 6 -2 10 -4 10 -3 0
-8 -4 -11 -10z"/>
<path d="M1610 1200 c0 -5 5 -10 10 -10 6 0 10 5 10 10 0 6 -4 10 -10 10 -5 0
-10 -4 -10 -10z"/>
<path d="M2215 1200 c-3 -5 -1 -10 4 -10 6 0 11 5 11 10 0 6 -2 10 -4 10 -3 0
-8 -4 -11 -10z"/>
<path d="M2366 1197 c3 -10 9 -15 12 -12 3 3 0 11 -7 18 -10 9 -11 8 -5 -6z"/>
<path d="M2673 1195 c0 -8 4 -15 9 -15 4 0 8 4 8 9 0 6 -4 12 -8 15 -5 3 -9
-1 -9 -9z"/>
<path d="M616 1191 c-4 -5 -1 -13 5 -17 8 -4 9 -3 5 4 -4 7 -3 12 3 12 5 0 12
-5 14 -10 3 -6 4 -5 3 2 -3 16 -23 22 -30 9z"/>
<path d="M1193 1185 c0 -8 4 -15 9 -15 4 0 8 4 8 9 0 6 -4 12 -8 15 -5 3 -9
-1 -9 -9z"/>
<path d="M2397 1193 c-4 -3 -7 -11 -7 -17 0 -6 5 -5 12 2 6 6 9 14 7 17 -3 3
-9 2 -12 -2z"/>
<path d="M295 1181 c6 -11 4 -13 -8 -8 -22 8 -21 5 3 -16 19 -16 20 -16 17 3
-2 11 -7 23 -12 27 -4 5 -4 2 0 -6z"/>
<path d="M590 1181 c0 -10 29 -36 34 -30 1 2 -6 12 -16 22 -10 9 -18 13 -18 8z"/>
<path d="M976 1182 c-3 -5 1 -9 9 -9 8 0 12 4 9 9 -3 4 -7 8 -9 8 -2 0 -6 -4
-9 -8z"/>
<path d="M1016 1182 c-3 -5 1 -9 9 -9 8 0 12 4 9 9 -3 4 -7 8 -9 8 -2 0 -6 -4
-9 -8z"/>
<path d="M1276 1175 c-17 -13 -18 -15 -3 -15 9 0 17 5 17 11 0 5 5 7 12 3 7
-4 8 -3 4 4 -9 14 -7 15 -30 -3z"/>
<path d="M1455 1179 c-6 -8 -4 -10 5 -4 9 5 10 1 6 -16 -6 -21 -6 -22 5 -6 7
13 8 22 1 29 -6 6 -12 6 -17 -3z"/>
<path d="M1580 1186 c0 -2 7 -7 16 -10 8 -3 12 -2 9 4 -6 10 -25 14 -25 6z"/>
<path d="M2720 1175 c-7 -8 -16 -12 -21 -9 -5 3 -9 0 -9 -5 0 -17 15 -13 35 9
10 11 16 20 13 20 -3 0 -11 -7 -18 -15z"/>
<path d="M1220 1167 c0 -9 5 -17 11 -17 5 0 7 -5 3 -12 -4 -7 -3 -8 5 -4 9 6
9 12 -1 24 -7 10 -14 19 -15 21 -2 2 -3 -3 -3 -12z"/>
<path d="M1340 1169 c0 -5 -5 -7 -11 -3 -8 4 -8 0 0 -15 14 -25 23 -28 14 -4
-4 11 -3 14 5 9 8 -5 10 -2 6 8 -7 18 -14 21 -14 5z"/>
<path d="M1630 1176 c0 -3 9 -10 20 -16 11 -6 20 -8 20 -6 0 3 -9 10 -20 16
-11 6 -20 8 -20 6z"/>
<path d="M1940 1176 c0 -2 7 -7 16 -10 8 -3 12 -2 9 4 -6 10 -25 14 -25 6z"/>
<path d="M655 1160 c-3 -5 -1 -10 4 -10 6 0 11 5 11 10 0 6 -2 10 -4 10 -3 0
-8 -4 -11 -10z"/>
<path d="M714 1130 c0 -22 3 -40 7 -40 7 0 5 67 -3 75 -2 3 -4 -13 -4 -35z"/>
<path d="M1044 1158 c-3 -4 5 -5 17 -3 30 6 36 14 9 12 -12 -1 -24 -5 -26 -9z"/>
<path d="M1400 1160 c-9 -6 -10 -10 -3 -10 6 0 15 5 18 10 8 12 4 12 -15 0z"/>
<path d="M1560 1160 c-8 -5 -10 -10 -5 -10 6 0 17 5 25 10 8 5 11 10 5 10 -5
0 -17 -5 -25 -10z"/>
<path d="M2035 1162 c3 -3 0 -10 -5 -17 -7 -8 -5 -12 5 -12 8 0 13 3 10 5 -3
3 0 10 5 17 7 8 5 12 -5 12 -8 0 -13 -3 -10 -5z"/>
<path d="M2309 1157 c7 -7 14 -8 21 -1 6 6 2 10 -12 11 -16 2 -18 -1 -9 -10z"/>
<path d="M2370 1160 c0 -5 5 -10 11 -10 5 0 7 5 4 10 -3 6 -8 10 -11 10 -2 0
-4 -4 -4 -10z"/>
<path d="M2655 1160 c-3 -5 -1 -10 4 -10 6 0 11 5 11 10 0 6 -2 10 -4 10 -3 0
-8 -4 -11 -10z"/>
<path d="M1495 1151 c-3 -5 0 -13 6 -17 7 -4 9 -3 5 4 -3 5 0 13 6 15 9 4 10
6 1 6 -6 1 -14 -3 -18 -8z"/>
<path d="M1990 1150 c-11 -7 -11 -10 -2 -10 8 0 10 -5 6 -12 -4 -7 -3 -9 1 -5
7 6 17 37 12 37 -1 0 -9 -5 -17 -10z"/>
<path d="M2736 1147 c3 -10 9 -15 12 -12 3 3 0 11 -7 18 -10 9 -11 8 -5 -6z"/>
<path d="M276 1134 c-3 -9 -2 -22 2 -31 6 -10 9 -5 9 16 0 35 -2 38 -11 15z"/>
<path d="M593 1128 c1 -15 6 -23 11 -18 4 4 4 16 -2 26 -9 16 -10 14 -9 -8z"/>
<path d="M1310 1141 c0 -10 29 -36 34 -30 1 2 -6 12 -16 22 -10 9 -18 13 -18
8z"/>
<path d="M1415 1141 c-9 -15 15 -25 28 -12 9 9 7 10 -7 5 -13 -5 -17 -4 -12 4
4 7 5 12 2 12 -3 0 -7 -4 -11 -9z"/>
<path d="M1576 1142 c-2 -4 6 -18 19 -30 17 -16 26 -19 31 -11 4 7 3 10 -2 7
-11 -6 -45 28 -36 36 3 3 3 6 -1 6 -3 0 -8 -3 -11 -8z"/>
<path d="M1633 1135 c0 -8 4 -12 9 -9 4 3 8 9 8 15 0 5 -4 9 -8 9 -5 0 -9 -7
-9 -15z"/>
<path d="M2230 1146 c0 -2 7 -7 16 -10 8 -3 12 -2 9 4 -6 10 -25 14 -25 6z"/>
<path d="M2268 1128 c-10 -10 -14 -18 -9 -18 10 0 36 29 30 34 -2 1 -12 -6
-21 -16z"/>
<path d="M2353 1135 c0 -7 6 -11 14 -8 7 3 13 6 13 8 0 2 -6 5 -13 8 -8 3 -14
-1 -14 -8z"/>
<path d="M2395 1141 c-3 -5 0 -13 6 -17 7 -4 9 -3 5 4 -3 5 0 13 6 15 9 4 10
6 1 6 -6 1 -14 -3 -18 -8z"/>
<path d="M326 1123 c-6 -14 -5 -15 5 -6 7 7 10 15 7 18 -3 3 -9 -2 -12 -12z"/>
<path d="M632 1126 c7 -8 15 -12 17 -11 5 6 -10 25 -20 25 -5 0 -4 -6 3 -14z"/>
<path d="M676 1126 c10 -8 21 -12 24 -10 5 6 -21 24 -34 24 -6 0 -1 -6 10 -14z"/>
<path d="M2303 1130 c2 -8 10 -15 17 -15 7 0 15 7 17 15 4 13 3 13 -6 0 -10
-13 -12 -13 -22 0 -9 13 -10 13 -6 0z"/>
<path d="M2674 1109 c7 -44 14 -46 12 -4 0 19 -5 35 -9 35 -5 0 -6 -14 -3 -31z"/>
<path d="M1080 1120 c-8 -5 -10 -10 -5 -10 6 0 17 5 25 10 8 5 11 10 5 10 -5
0 -17 -5 -25 -10z"/>
<path d="M1250 1117 c0 -6 3 -7 7 -4 3 4 16 -1 27 -10 20 -17 20 -17 6 1 -14
18 -13 19 3 13 10 -4 16 -3 13 2 -8 12 -56 11 -56 -2z"/>
<path d="M1462 1122 c-8 -6 -2 -9 18 -9 20 0 26 3 18 9 -7 4 -15 8 -18 8 -3 0
-11 -4 -18 -8z"/>
<path d="M1948 1112 c9 -10 19 -17 21 -16 6 5 -20 34 -30 34 -5 0 -1 -8 9 -18z"/>
<path d="M2146 1118 c3 -5 10 -6 15 -3 13 9 11 12 -6 12 -8 0 -12 -4 -9 -9z"/>
<path d="M2219 1113 c-13 -16 -12 -17 4 -4 9 7 17 15 17 17 0 8 -8 3 -21 -13z"/>
<path d="M2712 1121 c-11 -6 -10 -10 4 -15 9 -3 19 -4 22 -1 3 3 0 5 -7 5 -7
0 -9 5 -6 10 7 12 4 12 -13 1z"/>
<path d="M2759 1113 c-13 -16 -12 -17 4 -4 9 7 17 15 17 17 0 8 -8 3 -21 -13z"/>
<path d="M1395 1110 c-3 -5 -1 -10 4 -10 6 0 11 5 11 10 0 6 -2 10 -4 10 -3 0
-8 -4 -11 -10z"/>
<path d="M1555 1110 c-3 -5 -1 -10 4 -10 6 0 11 5 11 10 0 6 -2 10 -4 10 -3 0
-8 -4 -11 -10z"/>
<path d="M215 1100 c-3 -5 -1 -10 4 -10 6 0 11 5 11 10 0 6 -2 10 -4 10 -3 0
-8 -4 -11 -10z"/>
<path d="M614 1099 c-4 -7 -3 -9 4 -5 6 3 13 -2 15 -11 4 -16 5 -16 6 -1 1 21
-15 32 -25 17z"/>
<path d="M756 1099 c2 -4 -2 -10 -8 -12 -8 -4 -9 -6 -2 -6 6 -1 17 5 23 12 8
10 7 14 -4 14 -8 0 -12 -4 -9 -8z"/>
<path d="M797 1103 c-8 -7 11 -33 24 -33 5 0 9 5 9 10 0 6 -6 9 -12 8 -7 -2
-12 3 -10 10 2 13 -1 15 -11 5z"/>
<path d="M976 1101 c-3 -4 4 -17 17 -27 22 -19 22 -19 4 2 -9 11 -14 24 -10
27 3 4 4 7 0 7 -3 0 -8 -4 -11 -9z"/>
<path d="M1510 1100 c-9 -6 -10 -10 -3 -10 6 0 15 5 18 10 8 12 4 12 -15 0z"/>
<path d="M1942 1090 c8 -14 14 -35 13 -47 -1 -12 4 -24 11 -27 10 -4 11 1 4
18 -5 13 -7 26 -5 28 2 2 -6 14 -17 28 l-20 25 14 -25z"/>
<path d="M2031 1093 c7 -12 15 -20 18 -17 3 2 -3 12 -13 22 -17 16 -18 16 -5
-5z"/>
<path d="M2292 1104 c6 -12 -28 -44 -38 -36 -4 4 -4 1 1 -7 7 -12 10 -12 19 0
7 8 18 19 25 25 10 9 10 13 0 19 -7 5 -10 4 -7 -1z"/>
<path d="M2339 1108 c0 -2 -2 -13 -5 -26 -3 -19 -2 -21 10 -10 8 7 10 15 5 16
-5 2 -7 8 -3 13 3 5 3 9 0 9 -3 0 -6 -1 -7 -2z"/>
<path d="M1474 1091 c5 -7 0 -19 -10 -27 -18 -14 -18 -14 4 -4 24 12 28 25 10
36 -7 5 -8 3 -4 -5z"/>
<path d="M2174 1089 c-3 -6 -2 -15 3 -20 5 -5 9 -1 9 11 0 23 -2 24 -12 9z"/>
<path d="M2391 1084 c0 -11 3 -14 6 -6 3 7 2 16 -1 19 -3 4 -6 -2 -5 -13z"/>
<path d="M1360 1080 c-8 -5 -10 -10 -5 -10 6 0 17 5 25 10 8 5 11 10 5 10 -5
0 -17 -5 -25 -10z"/>
<path d="M1410 1080 c0 -5 5 -10 10 -10 6 0 10 5 10 10 0 6 -4 10 -10 10 -5 0
-10 -4 -10 -10z"/>
<path d="M1526 1082 c-3 -5 1 -9 9 -9 8 0 15 4 15 9 0 4 -4 8 -9 8 -6 0 -12
-4 -15 -8z"/>
<path d="M1593 1075 c0 -8 4 -12 9 -9 5 3 6 10 3 15 -9 13 -12 11 -12 -6z"/>
<path d="M2000 1076 c0 -8 4 -17 9 -20 5 -4 7 3 4 14 -6 23 -13 26 -13 6z"/>
<path d="M2755 1082 c3 -3 -1 -12 -7 -21 -8 -10 -4 -9 10 3 26 23 26 23 7 23
-8 0 -13 -3 -10 -5z"/>
<path d="M710 1071 c0 -7 -5 -9 -12 -5 -7 5 -8 3 -3 -5 5 -9 10 -10 18 -2 6 6
8 14 4 18 -4 3 -7 1 -7 -6z"/>
<path d="M310 1060 c0 -5 5 -10 11 -10 5 0 7 5 4 10 -3 6 -8 10 -11 10 -2 0
-4 -4 -4 -10z"/>
<path d="M673 1040 c0 -23 3 -28 9 -16 5 9 5 23 0 32 -6 12 -9 7 -9 -16z"/>
<path d="M755 1048 c4 -13 12 -27 17 -33 5 -6 5 1 -1 16 -5 15 -7 30 -4 33 4
3 1 6 -6 6 -8 0 -10 -8 -6 -22z"/>
<path d="M895 1061 c-3 -5 -2 -12 3 -15 5 -3 9 1 9 9 0 17 -3 19 -12 6z"/>
<path d="M1030 1064 c0 -20 27 -37 36 -23 4 7 3 9 -4 5 -6 -3 -15 2 -21 11 -6
10 -11 13 -11 7z"/>
<path d="M2353 1040 c0 -23 3 -28 9 -16 5 9 5 23 0 32 -6 12 -9 7 -9 -16z"/>
<path d="M2695 1061 c-3 -6 3 -14 13 -20 14 -7 19 -6 19 4 0 7 -7 11 -15 7
-10 -3 -13 -1 -8 6 4 7 5 12 2 12 -3 0 -7 -4 -11 -9z"/>
<path d="M290 1049 c0 -5 -5 -7 -11 -3 -8 4 -7 0 1 -15 9 -18 30 -21 30 -5 0
3 -5 2 -11 -2 -8 -4 -9 0 -4 15 3 11 4 21 1 21 -3 0 -6 -5 -6 -11z"/>
<path d="M590 1050 c8 -5 20 -10 25 -10 6 0 3 5 -5 10 -8 5 -19 10 -25 10 -5
0 -3 -5 5 -10z"/>
<path d="M630 1056 c0 -2 8 -10 18 -17 15 -13 16 -12 3 4 -13 16 -21 21 -21
13z"/>
<path d="M2222 1046 c10 -7 14 -17 10 -21 -4 -5 -1 -5 6 -1 19 11 14 23 -10
29 -21 5 -21 5 -6 -7z"/>
<path d="M196 1042 c-3 -5 1 -9 9 -9 8 0 12 4 9 9 -3 4 -7 8 -9 8 -2 0 -6 -4
-9 -8z"/>
<path d="M716 1035 c-16 -12 -17 -15 -4 -15 9 0 18 7 22 15 7 18 6 18 -18 0z"/>
<path d="M993 1043 c4 -3 1 -13 -6 -22 -11 -14 -10 -14 6 -2 20 15 22 31 5 31
-6 0 -8 -3 -5 -7z"/>
<path d="M2285 1040 c3 -5 8 -10 11 -10 2 0 4 5 4 10 0 6 -5 10 -11 10 -5 0
-7 -4 -4 -10z"/>
<path d="M2320 1035 c-7 -9 -11 -17 -9 -20 3 -2 10 5 17 15 14 24 10 26 -8 5z"/>
<path d="M2673 1035 c0 -8 4 -15 9 -15 4 0 8 4 8 9 0 6 -4 12 -8 15 -5 3 -9
-1 -9 -9z"/>
<path d="M873 1025 c0 -8 4 -12 9 -9 5 3 6 10 3 15 -9 13 -12 11 -12 -6z"/>
<path d="M311 1010 c-13 -11 -19 -20 -13 -20 10 0 42 27 42 36 0 7 -4 5 -29
-16z"/>
<path d="M1895 1021 c-6 -11 13 -26 22 -17 4 3 1 6 -6 6 -7 0 -9 5 -6 10 3 6
4 10 1 10 -3 0 -7 -4 -11 -9z"/>
<path d="M2144 1022 c4 -3 14 -7 22 -8 9 -1 13 0 10 4 -4 3 -14 7 -22 8 -9 1
-13 0 -10 -4z"/>
<path d="M2749 1017 c6 -8 9 -16 6 -19 -3 -2 2 -5 10 -5 13 0 13 3 -2 19 -19
21 -31 25 -14 5z"/>
<path d="M593 1010 c2 -8 10 -14 17 -12 8 2 10 -3 6 -15 -6 -14 -5 -16 5 -5
10 9 10 15 1 24 -7 7 -12 8 -12 3 0 -6 -5 -3 -11 5 -9 13 -10 13 -6 0z"/>
<path d="M810 1016 c0 -2 8 -10 18 -17 15 -13 16 -12 3 4 -13 16 -21 21 -21
13z"/>
<path d="M2019 1018 c-5 -18 -6 -38 -1 -34 7 8 12 36 6 36 -2 0 -4 -1 -5 -2z"/>
<path d="M684 999 c-3 -6 -2 -15 4 -21 6 -6 12 -6 17 3 6 8 4 10 -5 4 -10 -6
-12 -4 -7 8 7 19 2 23 -9 6z"/>
<path d="M913 991 c0 -11 5 -18 9 -15 4 3 5 11 1 19 -7 21 -12 19 -10 -4z"/>
<path d="M1930 1002 c0 -4 10 -9 22 -9 18 -2 20 0 8 7 -18 12 -30 13 -30 2z"/>
<path d="M2116 1001 c-3 -5 2 -15 12 -22 15 -12 16 -12 5 2 -7 9 -10 19 -6 22
3 4 4 7 0 7 -3 0 -8 -4 -11 -9z"/>
<path d="M2291 994 c0 -11 3 -14 6 -6 3 7 2 16 -1 19 -3 4 -6 -2 -5 -13z"/>
<path d="M2672 994 c10 -10 20 -16 22 -13 3 3 -5 11 -17 18 -21 13 -21 12 -5
-5z"/>
<path d="M2710 1003 c0 -6 8 -17 18 -24 16 -13 16 -13 2 6 -8 11 -16 22 -17
24 -2 2 -3 0 -3 -6z"/>
<path d="M233 985 c0 -8 10 -23 21 -32 21 -18 21 -18 4 2 -9 11 -17 24 -16 28
0 5 -2 11 -4 13 -3 2 -5 -3 -5 -11z"/>
<path d="M1039 998 c-6 -20 -6 -39 0 -42 4 -3 7 6 7 20 0 20 -4 32 -7 22z"/>
<path d="M2230 989 c-12 -8 -10 -9 9 -4 17 5 22 4 16 -5 -5 -9 -4 -11 4 -6 6
4 9 12 6 17 -8 12 -16 11 -35 -2z"/>
<path d="M266 977 c3 -10 9 -15 12 -12 3 3 0 11 -7 18 -10 9 -11 8 -5 -6z"/>
<path d="M632 970 c-18 -29 -15 -38 4 -12 9 13 14 25 12 27 -2 2 -9 -5 -16
-15z"/>
<path d="M788 983 c7 -3 16 -2 19 1 4 3 -2 6 -13 5 -11 0 -14 -3 -6 -6z"/>
<path d="M999 973 c-13 -16 -12 -17 4 -4 9 7 17 15 17 17 0 8 -8 3 -21 -13z"/>
<path d="M2335 980 c6 -10 4 -12 -11 -6 -15 6 -17 5 -6 -5 9 -9 15 -10 23 -2
8 8 7 13 -2 18 -8 6 -10 4 -4 -5z"/>
<path d="M810 970 c-9 -6 -10 -10 -3 -10 6 0 15 5 18 10 8 12 4 12 -15 0z"/>
<path d="M1920 972 c0 -7 -7 -9 -17 -5 -10 3 -15 3 -11 -1 3 -4 12 -8 20 -10
7 -1 20 -6 28 -11 13 -8 13 -7 0 11 -8 10 -16 21 -17 23 -2 2 -3 -1 -3 -7z"/>
<path d="M316 961 c-18 -7 -18 -8 -3 -14 9 -3 17 -2 17 4 0 6 5 7 12 3 7 -4 8
-3 4 4 -4 7 -8 12 -9 11 -1 0 -11 -4 -21 -8z"/>
<path d="M660 959 c0 -5 5 -7 10 -4 6 3 10 8 10 11 0 2 -4 4 -10 4 -5 0 -10
-5 -10 -11z"/>
<path d="M744 958 c9 -5 23 -5 32 0 12 6 7 9 -16 9 -23 0 -28 -3 -16 -9z"/>
<path d="M1086 961 c-3 -5 1 -11 9 -14 9 -4 12 -1 8 9 -6 16 -10 17 -17 5z"/>
<path d="M1860 959 c0 -5 5 -7 10 -4 6 3 10 8 10 11 0 2 -4 4 -10 4 -5 0 -10
-5 -10 -11z"/>
<path d="M2000 960 c-9 -6 -10 -10 -3 -10 6 0 15 5 18 10 8 12 4 12 -15 0z"/>
<path d="M2030 959 c0 -5 5 -7 10 -4 6 3 10 8 10 11 0 2 -4 4 -10 4 -5 0 -10
-5 -10 -11z"/>
<path d="M2181 954 c0 -11 3 -14 6 -6 3 7 2 16 -1 19 -3 4 -6 -2 -5 -13z"/>
<path d="M2205 960 c-3 -6 1 -7 9 -4 18 7 21 14 7 14 -6 0 -13 -4 -16 -10z"/>
<path d="M2262 962 c-8 -6 -2 -9 18 -9 20 0 26 3 18 9 -7 4 -15 8 -18 8 -3 0
-11 -4 -18 -8z"/>
<path d="M2388 963 c7 -3 16 -2 19 1 4 3 -2 6 -13 5 -11 0 -14 -3 -6 -6z"/>
<path d="M2690 959 c0 -5 5 -7 10 -4 6 3 10 8 10 11 0 2 -4 4 -10 4 -5 0 -10
-5 -10 -11z"/>
<path d="M2350 950 c0 -5 5 -10 11 -10 5 0 7 5 4 10 -3 6 -8 10 -11 10 -2 0
-4 -4 -4 -10z"/>
<path d="M2717 953 c-10 -9 -9 -23 1 -23 5 0 9 7 9 15 0 17 -1 18 -10 8z"/>
<path d="M2749 943 c-13 -16 -12 -17 4 -4 9 7 17 15 17 17 0 8 -8 3 -21 -13z"/>
<path d="M276 933 c-6 -14 -5 -15 5 -6 7 7 10 15 7 18 -3 3 -9 -2 -12 -12z"/>
<path d="M595 940 c3 -5 8 -10 11 -10 2 0 4 5 4 10 0 6 -5 10 -11 10 -5 0 -7
-4 -4 -10z"/>
<path d="M740 933 c6 -13 15 -23 20 -23 5 0 14 10 20 23 11 21 10 21 -4 3 -16
-20 -16 -20 -32 0 -14 18 -15 18 -4 -3z"/>
<path d="M1834 925 c-4 -15 -11 -22 -18 -18 -6 3 -7 2 -3 -2 17 -19 32 -11 33
16 1 36 -4 37 -12 4z"/>
<path d="M1886 942 c-8 -13 -18 -77 -11 -70 3 3 8 18 11 34 3 15 7 31 10 36 3
4 3 8 0 8 -3 0 -7 -4 -10 -8z"/>
<path d="M2214 935 c-4 -8 -10 -12 -15 -9 -5 3 -6 -2 -3 -11 7 -18 7 -18 23
13 6 12 9 22 6 22 -3 0 -8 -7 -11 -15z"/>
<path d="M680 931 c0 -6 4 -13 10 -16 6 -3 7 1 4 9 -7 18 -14 21 -14 7z"/>
<path d="M1055 929 c-4 -6 -5 -12 -2 -15 2 -3 7 2 10 11 7 17 1 20 -8 4z"/>
<path d="M1119 916 c-16 -20 -16 -22 1 -22 11 0 16 5 12 15 -3 9 -1 12 6 7 6
-3 14 -1 18 5 4 7 3 9 -4 5 -5 -3 -12 -2 -14 3 -1 5 -10 -1 -19 -13z"/>
<path d="M2235 930 c-3 -6 1 -7 9 -4 18 7 21 14 7 14 -6 0 -13 -4 -16 -10z"/>
<path d="M2266 925 c-11 -8 -15 -15 -9 -15 6 0 16 7 23 15 16 19 11 19 -14 0z"/>
<path d="M2300 936 c0 -2 7 -7 16 -10 8 -3 12 -2 9 4 -6 10 -25 14 -25 6z"/>
<path d="M2686 923 c-6 -14 -5 -15 5 -6 7 7 10 15 7 18 -3 3 -9 -2 -12 -12z"/>
<path d="M2000 920 c-8 -5 -10 -10 -5 -10 6 0 17 5 25 10 8 5 11 10 5 10 -5 0
-17 -5 -25 -10z"/>
<path d="M2359 913 c-13 -17 -13 -17 6 -3 11 8 22 16 24 17 2 2 0 3 -6 3 -6 0
-17 -8 -24 -17z"/>
<path d="M2396 914 c-11 -8 -16 -14 -10 -14 13 0 39 18 34 24 -3 2 -14 -2 -24
-10z"/>
<path d="M311 912 c-1 -7 -6 -10 -13 -6 -7 4 -8 3 -4 -5 4 -6 11 -9 16 -6 4 3
10 0 12 -7 3 -7 7 -5 11 6 4 9 3 15 -2 11 -5 -3 -12 1 -14 7 -4 10 -6 10 -6 0z"/>
<path d="M1955 911 c-3 -5 -2 -12 3 -15 5 -3 9 1 9 9 0 17 -3 19 -12 6z"/>
<path d="M2153 905 c0 -8 4 -15 9 -15 4 0 8 4 8 9 0 6 -4 12 -8 15 -5 3 -9 -1
-9 -9z"/>
<path d="M260 900 c-9 -6 -10 -10 -3 -10 6 0 15 5 18 10 8 12 4 12 -15 0z"/>
<path d="M673 880 c0 -23 3 -28 9 -16 5 9 5 23 0 32 -6 12 -9 7 -9 -16z"/>
<path d="M735 900 c5 -9 1 -10 -16 -6 -21 6 -22 6 -6 -5 13 -7 22 -8 29 -1 6
6 6 12 -3 17 -8 6 -10 4 -4 -5z"/>
<path d="M900 905 c0 -2 6 -8 13 -14 10 -8 14 -7 14 2 0 8 -6 14 -14 14 -7 0
-13 -1 -13 -2z"/>
<path d="M1175 903 c3 -3 -2 -14 -10 -23 -13 -14 -12 -16 4 -16 17 0 23 29 8
41 -4 3 -5 2 -2 -2z"/>
<path d="M1790 901 c0 -6 4 -13 10 -16 6 -3 7 1 4 9 -7 18 -14 21 -14 7z"/>
<path d="M1906 902 c-2 -4 4 -8 14 -8 10 0 16 4 14 8 -3 4 -9 8 -14 8 -5 0
-11 -4 -14 -8z"/>
<path d="M2713 894 c0 -7 5 -15 12 -17 6 -3 11 3 11 12 0 10 -5 18 -11 18 -7
0 -12 -6 -12 -13z"/>
<path d="M590 890 c8 -5 20 -10 25 -10 6 0 3 5 -5 10 -8 5 -19 10 -25 10 -5 0
-3 -5 5 -10z"/>
<path d="M1990 896 c0 -2 8 -10 18 -17 15 -13 16 -12 3 4 -13 16 -21 21 -21
13z"/>
<path d="M2275 890 c3 -5 8 -10 11 -10 2 0 4 5 4 10 0 6 -5 10 -11 10 -5 0 -7
-4 -4 -10z"/>
<path d="M2690 891 c0 -7 -4 -10 -8 -7 -5 3 -9 -1 -9 -9 0 -8 4 -15 8 -15 9 0
21 31 14 38 -3 3 -5 0 -5 -7z"/>
<path d="M275 881 c-3 -5 -2 -12 3 -15 5 -3 9 1 9 9 0 17 -3 19 -12 6z"/>
<path d="M640 875 c-7 -9 -11 -17 -9 -20 3 -2 10 5 17 15 14 24 10 26 -8 5z"/>
<path d="M814 882 c4 -3 14 -7 22 -8 9 -1 13 0 10 4 -4 3 -14 7 -22 8 -9 1
-13 0 -10 -4z"/>
<path d="M1206 877 c3 -10 9 -15 12 -12 3 3 0 11 -7 18 -10 9 -11 8 -5 -6z"/>
<path d="M1745 879 c-4 -6 -4 -13 -1 -16 3 -4 6 -1 6 6 0 7 5 9 10 6 6 -3 10
-1 10 4 0 14 -17 14 -25 0z"/>
<path d="M2086 878 c3 -5 10 -6 15 -3 13 9 11 12 -6 12 -8 0 -12 -4 -9 -9z"/>
<path d="M2235 880 c3 -6 1 -10 -6 -10 -7 0 -10 -3 -6 -6 3 -3 13 -2 22 4 16
8 16 9 1 15 -10 4 -15 3 -11 -3z"/>
<path d="M2344 878 c9 -5 23 -5 32 0 12 6 7 9 -16 9 -23 0 -28 -3 -16 -9z"/>
<path d="M750 870 c0 -5 5 -10 11 -10 5 0 7 5 4 10 -3 6 -8 10 -11 10 -2 0 -4
-4 -4 -10z"/>
<path d="M2175 870 c-4 -6 1 -7 11 -3 13 5 15 3 9 -7 -5 -9 -4 -11 4 -6 6 4 9
12 6 17 -8 12 -22 12 -30 -1z"/>
<path d="M2295 871 c-3 -5 0 -13 6 -17 8 -5 9 -3 4 6 -6 10 -4 12 9 7 10 -4
15 -3 11 3 -8 13 -22 13 -30 1z"/>
<path d="M2790 876 c0 -2 8 -10 18 -17 15 -13 16 -12 3 4 -13 16 -21 21 -21
13z"/>
<path d="M695 860 c-5 -8 -4 -11 3 -6 5 3 12 1 14 -6 5 -14 38 -20 38 -6 0 5
-6 8 -12 5 -7 -2 -18 3 -24 11 -9 12 -13 12 -19 2z"/>
<path d="M959 853 c-13 -16 -12 -17 4 -4 9 7 17 15 17 17 0 8 -8 3 -21 -13z"/>
<path d="M1798 863 c7 -3 16 -2 19 1 4 3 -2 6 -13 5 -11 0 -14 -3 -6 -6z"/>
<path d="M2375 861 c-6 -11 13 -26 22 -17 4 3 1 6 -6 6 -7 0 -9 5 -6 10 3 6 4
10 1 10 -3 0 -7 -4 -11 -9z"/>
<path d="M593 850 c2 -8 10 -14 17 -12 8 2 10 -3 6 -15 -6 -14 -5 -16 5 -5 10
9 10 15 1 24 -7 7 -12 8 -12 3 0 -6 -5 -3 -11 5 -9 13 -10 13 -6 0z"/>
<path d="M650 851 c0 -6 4 -13 10 -16 6 -3 7 1 4 9 -7 18 -14 21 -14 7z"/>
<path d="M826 841 c4 -17 3 -21 -6 -16 -8 5 -11 4 -7 -3 8 -11 33 -11 42 1 3
4 2 5 -2 2 -4 -3 -13 5 -20 17 l-14 23 7 -24z"/>
<path d="M857 849 c7 -7 15 -10 18 -7 3 3 -2 9 -12 12 -14 6 -15 5 -6 -5z"/>
<path d="M1036 847 c3 -10 9 -15 12 -12 3 3 0 11 -7 18 -10 9 -11 8 -5 -6z"/>
<path d="M1340 856 c0 -2 7 -7 16 -10 8 -3 12 -2 9 4 -6 10 -25 14 -25 6z"/>
<path d="M1773 845 c0 -8 4 -12 9 -9 5 3 6 10 3 15 -9 13 -12 11 -12 -6z"/>
<path d="M2135 850 c-4 -6 -10 -8 -15 -5 -4 3 -7 -2 -6 -10 1 -8 4 -16 7 -17
2 -2 3 -1 1 1 -1 2 5 13 15 23 9 10 13 18 10 18 -3 0 -9 -5 -12 -10z"/>
<path d="M2341 844 c0 -11 3 -14 6 -6 3 7 2 16 -1 19 -3 4 -6 -2 -5 -13z"/>
<path d="M2735 850 c-4 -6 -11 -7 -17 -4 -7 4 -8 2 -4 -5 6 -9 11 -9 22 0 14
11 18 19 10 19 -3 0 -8 -5 -11 -10z"/>
<path d="M279 833 c-13 -17 -13 -17 6 -3 11 8 22 16 24 17 2 2 0 3 -6 3 -6 0
-17 -8 -24 -17z"/>
<path d="M320 835 c-9 -10 -9 -15 -1 -15 6 0 11 5 11 11 0 5 5 7 12 3 7 -4 8
-3 4 4 -9 15 -11 15 -26 -3z"/>
<path d="M770 840 c0 -5 5 -10 10 -10 6 0 10 5 10 10 0 6 -4 10 -10 10 -5 0
-10 -4 -10 -10z"/>
<path d="M1155 840 c-3 -5 -1 -10 4 -10 6 0 11 5 11 10 0 6 -2 10 -4 10 -3 0
-8 -4 -11 -10z"/>
<path d="M1210 841 c0 -6 4 -13 10 -16 6 -3 7 1 4 9 -7 18 -14 21 -14 7z"/>
<path d="M1400 840 c0 -6 4 -9 9 -6 5 4 12 1 14 -4 3 -6 4 -5 3 2 -3 15 -26
23 -26 8z"/>
<path d="M1490 840 c0 -5 5 -10 10 -10 6 0 10 5 10 10 0 6 -4 10 -10 10 -5 0
-10 -4 -10 -10z"/>
<path d="M1560 840 c8 -5 20 -10 25 -10 6 0 3 5 -5 10 -8 5 -19 10 -25 10 -5
0 -3 -5 5 -10z"/>
<path d="M1630 846 c0 -2 7 -7 16 -10 8 -3 12 -2 9 4 -6 10 -25 14 -25 6z"/>
<path d="M1735 841 c-3 -5 -2 -12 3 -15 5 -3 9 1 9 9 0 17 -3 19 -12 6z"/>
<path d="M2200 840 c-8 -5 -10 -10 -5 -10 6 0 17 5 25 10 8 5 11 10 5 10 -5 0
-17 -5 -25 -10z"/>
<path d="M2676 835 c-11 -8 -15 -15 -9 -15 6 0 16 7 23 15 16 19 11 19 -14 0z"/>
<path d="M2235 831 c-9 -15 15 -25 28 -12 9 9 7 10 -7 5 -13 -5 -17 -4 -12 4
4 7 5 12 2 12 -3 0 -7 -4 -11 -9z"/>
<path d="M636 813 c-6 -14 -5 -15 5 -6 7 7 10 15 7 18 -3 3 -9 -2 -12 -12z"/>
<path d="M1300 825 c0 -2 6 -8 13 -14 10 -8 14 -7 14 2 0 8 -6 14 -14 14 -7 0
-13 -1 -13 -2z"/>
<path d="M1459 828 c0 -2 -2 -13 -3 -26 -3 -21 -2 -21 18 -5 12 10 23 20 26
22 3 2 -6 0 -19 -4 -16 -5 -21 -4 -17 4 4 6 5 11 2 11 -3 0 -6 -1 -7 -2z"/>
<path d="M1535 820 c-3 -6 1 -7 10 -4 11 5 14 2 9 -12 -5 -15 -4 -16 4 -4 11
15 7 30 -8 30 -5 0 -12 -4 -15 -10z"/>
<path d="M1599 828 c-7 -23 -5 -37 4 -35 7 1 11 -5 9 -13 -2 -8 0 -11 4 -7 10
10 14 37 6 36 -20 -3 -25 2 -12 11 10 6 11 10 3 10 -7 0 -13 -1 -14 -2z"/>
<path d="M2006 818 c3 -5 10 -6 15 -3 13 9 11 12 -6 12 -8 0 -12 -4 -9 -9z"/>
<path d="M2055 820 c3 -5 8 -10 11 -10 2 0 4 5 4 10 0 6 -5 10 -11 10 -5 0 -7
-4 -4 -10z"/>
<path d="M2694 818 c-5 -7 -2 -8 6 -3 10 6 12 4 6 -10 -5 -15 -4 -16 9 -5 19
15 19 16 0 23 -8 4 -17 1 -21 -5z"/>
<path d="M293 805 c0 -7 6 -11 14 -8 7 3 13 6 13 8 0 2 -6 5 -13 8 -8 3 -14
-1 -14 -8z"/>
<path d="M750 809 c0 -5 5 -7 10 -4 6 3 10 8 10 11 0 2 -4 4 -10 4 -5 0 -10
-5 -10 -11z"/>
<path d="M870 799 c0 -5 5 -7 10 -4 6 3 10 8 10 11 0 2 -4 4 -10 4 -5 0 -10
-5 -10 -11z"/>
<path d="M897 791 c-10 -14 -10 -14 4 -4 9 7 18 10 21 7 3 -3 8 -1 12 4 9 16
-24 9 -37 -7z"/>
<path d="M973 791 c0 -11 5 -18 9 -15 4 3 5 11 1 19 -7 21 -12 19 -10 -4z"/>
<path d="M1213 791 c0 -11 5 -18 9 -15 4 3 5 11 1 19 -7 21 -12 19 -10 -4z"/>
<path d="M1341 796 c-9 -11 -9 -16 1 -22 7 -4 10 -4 6 1 -4 4 -3 14 3 22 6 7
9 13 6 13 -2 0 -10 -6 -16 -14z"/>
<path d="M2053 785 c0 -8 4 -12 9 -9 5 3 6 10 3 15 -9 13 -12 11 -12 -6z"/>
<path d="M317 773 c3 -7 6 -13 8 -13 2 0 5 6 8 13 3 8 -1 14 -8 14 -7 0 -11
-6 -8 -14z"/>
<path d="M1506 778 c3 -4 9 -8 15 -8 5 0 9 4 9 8 0 5 -7 9 -15 9 -8 0 -12 -4
-9 -9z"/>
<path d="M279 753 c-12 -16 -12 -17 2 -6 9 7 19 10 22 6 4 -3 7 -1 7 5 0 17
-16 15 -31 -5z"/>
<path d="M2113 755 c0 -8 4 -12 9 -9 5 3 6 10 3 15 -9 13 -12 11 -12 -6z"/>
<path d="M2682 756 c7 -8 15 -12 17 -11 5 6 -10 25 -20 25 -5 0 -4 -6 3 -14z"/>
<path d="M836 733 c-6 -14 -5 -15 5 -6 7 7 10 15 7 18 -3 3 -9 -2 -12 -12z"/>
<path d="M1435 740 c3 -5 8 -10 11 -10 2 0 4 5 4 10 0 6 -5 10 -11 10 -5 0 -7
-4 -4 -10z"/>
<path d="M1396 727 c3 -10 9 -15 12 -12 3 3 0 11 -7 18 -10 9 -11 8 -5 -6z"/>
<path d="M276 722 c-3 -5 1 -9 9 -9 8 0 12 4 9 9 -3 4 -7 8 -9 8 -2 0 -6 -4
-9 -8z"/>
<path d="M330 719 c0 -5 5 -7 10 -4 6 3 10 8 10 11 0 2 -4 4 -10 4 -5 0 -10
-5 -10 -11z"/>
<path d="M873 713 c0 -9 4 -10 14 -2 7 6 13 12 13 14 0 1 -6 2 -13 2 -8 0 -14
-6 -14 -14z"/>
<path d="M2659 713 c-13 -16 -12 -17 4 -4 16 13 21 21 13 21 -2 0 -10 -8 -17
-17z"/>
<path d="M857 675 c-4 -8 -3 -16 1 -19 4 -3 9 4 9 15 2 23 -3 25 -10 4z"/>
<path d="M2670 681 c0 -6 4 -13 10 -16 6 -3 7 1 4 9 -7 18 -14 21 -14 7z"/>
<path d="M295 660 c3 -5 8 -10 11 -10 2 0 4 5 4 10 0 6 -5 10 -11 10 -5 0 -7
-4 -4 -10z"/>
<path d="M470 601 c0 -6 4 -13 10 -16 6 -3 7 1 4 9 -7 18 -14 21 -14 7z"/>
<path d="M575 600 c-3 -5 -1 -10 4 -10 6 0 11 5 11 10 0 6 -2 10 -4 10 -3 0
-8 -4 -11 -10z"/>
<path d="M639 608 c-6 -21 -5 -38 1 -38 5 0 8 9 7 20 -1 17 -5 26 -8 18z"/>
<path d="M666 602 c-3 -5 1 -9 9 -9 8 0 12 4 9 9 -3 4 -7 8 -9 8 -2 0 -6 -4
-9 -8z"/>
<path d="M714 588 c-19 -23 -19 -23 2 -5 11 9 24 14 29 10 4 -5 5 -2 1 5 -9
16 -10 16 -32 -10z"/>
<path d="M2390 601 c0 -6 4 -13 10 -16 6 -3 7 1 4 9 -7 18 -14 21 -14 7z"/>
<path d="M2467 603 c-3 -5 4 -15 16 -23 21 -12 21 -12 7 6 -8 10 -15 20 -16
22 -1 2 -4 -1 -7 -5z"/>
<path d="M2554 585 c1 -8 8 -21 16 -28 12 -10 12 -9 2 4 -6 9 -9 18 -6 21 3 3
1 9 -4 12 -6 3 -9 -1 -8 -9z"/>
<path d="M433 573 c0 -9 4 -10 14 -2 7 6 13 12 13 14 0 1 -6 2 -13 2 -8 0 -14
-6 -14 -14z"/>
<path d="M537 583 c-9 -8 12 -33 27 -33 6 0 3 5 -7 11 -9 6 -15 14 -12 20 7
10 2 12 -8 2z"/>
<path d="M2215 580 c3 -5 8 -10 11 -10 2 0 4 5 4 10 0 6 -5 10 -11 10 -5 0 -7
-4 -4 -10z"/>
<path d="M2350 583 c5 -2 8 -9 5 -13 -3 -5 -1 -11 4 -14 5 -4 8 2 7 11 -2 9
-8 18 -15 19 -6 1 -7 0 -1 -3z"/>
<path d="M491 567 c-8 -10 -7 -14 2 -14 8 0 14 6 14 14 0 7 -1 13 -2 13 -2 0
-8 -6 -14 -13z"/>
<path d="M457 555 c-4 -8 -3 -16 1 -19 4 -3 9 4 9 15 2 23 -3 25 -10 4z"/>
<path d="M606 562 c-3 -5 1 -9 9 -9 8 0 12 4 9 9 -3 4 -7 8 -9 8 -2 0 -6 -4
-9 -8z"/>
<path d="M2255 560 c3 -5 8 -10 11 -10 2 0 4 5 4 10 0 6 -5 10 -11 10 -5 0 -7
-4 -4 -10z"/>
<path d="M2330 561 c0 -6 4 -13 10 -16 6 -3 7 1 4 9 -7 18 -14 21 -14 7z"/>
<path d="M2431 547 c-13 -21 -12 -21 5 -5 10 10 16 20 13 22 -3 3 -11 -5 -18
-17z"/>
<path d="M735 551 c-3 -5 -2 -12 3 -15 5 -3 9 1 9 9 0 17 -3 19 -12 6z"/>
<path d="M406 542 c-3 -5 1 -9 9 -9 8 0 12 4 9 9 -3 4 -7 8 -9 8 -2 0 -6 -4
-9 -8z"/>
<path d="M636 541 c-3 -5 2 -15 12 -22 15 -12 16 -12 5 2 -7 9 -10 19 -6 22 3
4 4 7 0 7 -3 0 -8 -4 -11 -9z"/>
<path d="M2390 539 c0 -5 5 -7 10 -4 6 3 10 8 10 11 0 2 -4 4 -10 4 -5 0 -10
-5 -10 -11z"/>
<path d="M2350 500 c0 -5 5 -10 11 -10 5 0 7 5 4 10 -3 6 -8 10 -11 10 -2 0
-4 -4 -4 -10z"/>
</g>
</svg>
